<?xml version="1.0" encoding="UTF-8" standalone="no"?>
<!-- Created with Inkscape (http://www.inkscape.org/) -->

<svg
   xmlns:dc="http://purl.org/dc/elements/1.1/"
   xmlns:cc="http://creativecommons.org/ns#"
   xmlns:rdf="http://www.w3.org/1999/02/22-rdf-syntax-ns#"
   xmlns:svg="http://www.w3.org/2000/svg"
   xmlns="http://www.w3.org/2000/svg"
   xmlns:sodipodi="http://sodipodi.sourceforge.net/DTD/sodipodi-0.dtd"
   xmlns:inkscape="http://www.inkscape.org/namespaces/inkscape"
   width="1130.7188"
   height="198.04367"
   id="svg3713"
   version="1.1"
   inkscape:version="0.47 r22583"
   sodipodi:docname="logo_testo.svg">
  <defs
     id="defs3715">
    <inkscape:perspective
       sodipodi:type="inkscape:persp3d"
       inkscape:vp_x="0 : 526.18109 : 1"
       inkscape:vp_y="0 : 1000 : 0"
       inkscape:vp_z="744.09448 : 526.18109 : 1"
       inkscape:persp3d-origin="372.04724 : 350.78739 : 1"
       id="perspective3721" />
    <inkscape:perspective
       id="perspective3708"
       inkscape:persp3d-origin="0.5 : 0.33333333 : 1"
       inkscape:vp_z="1 : 0.5 : 1"
       inkscape:vp_y="0 : 1000 : 0"
       inkscape:vp_x="0 : 0.5 : 1"
       sodipodi:type="inkscape:persp3d" />
  </defs>
  <sodipodi:namedview
     id="base"
     pagecolor="#ffffff"
     bordercolor="#666666"
     borderopacity="1.0"
     inkscape:pageopacity="0.0"
     inkscape:pageshadow="2"
     inkscape:zoom="0.35"
     inkscape:cx="565.3594"
     inkscape:cy="99.02184"
     inkscape:document-units="px"
     inkscape:current-layer="layer1"
     showgrid="false"
     inkscape:window-width="732"
     inkscape:window-height="504"
     inkscape:window-x="253"
     inkscape:window-y="127"
     inkscape:window-maximized="0" />
  <metadata
     id="metadata3718">
    <rdf:RDF>
      <cc:Work
         rdf:about="">
        <dc:format>image/svg+xml</dc:format>
        <dc:type
           rdf:resource="http://purl.org/dc/dcmitype/StillImage" />
        <dc:title />
      </cc:Work>
    </rdf:RDF>
  </metadata>
  <g
     inkscape:label="Livello 1"
     inkscape:groupmode="layer"
     id="layer1"
     transform="translate(190.3594,-433.34035)">
    <path
       style="font-size:180px;font-style:normal;font-variant:normal;font-weight:bold;font-stretch:condensed;text-align:center;text-anchor:middle;fill:#008800;fill-opacity:1;stroke:none;font-family:Romance Fatal Serif;-inkscape-font-specification:Romance Fatal Serif Bold Condensed"
       d="m 202.23435,433.34035 -24.125,9.90625 1.25,3.0625 c 2.51995,-0.95986 4.49745,-1.43736 5.9375,-1.4375 1.43995,1.4e-4 2.66494,0.41014 3.625,1.25 0.95994,0.72014 1.60869,2.15264 1.96875,4.3125 0.47994,2.04014 0.71869,7.69763 0.71875,16.9375 l 0,49.3125 c -5.16005,-3.11992 -11.29505,-4.68742 -18.375,-4.6875 -11.40003,8e-5 -20.63877,4.46383 -27.71875,13.34375 -6.96001,8.88006 -10.4375,19.0738 -10.4375,30.59375 0,11.52003 3.23874,20.99752 9.71875,28.4375 6.59998,7.32 14.33872,10.96875 23.21875,10.96875 4.31996,0 8.34246,-0.8875 12.0625,-2.6875 3.71995,-1.8 7.5712,-4.7325 11.53125,-8.8125 l 0,11.5 3.96875,0 23.5625,0 0,-2.875 32.875,0 0,-3.25 c -3.84004,0 -6.49753,-0.41 -7.9375,-1.25 -1.44003,-0.83999 -2.49878,-2.10124 -3.21875,-3.78125 -0.72003,-1.67999 -1.09378,-5.02249 -1.09375,-10.0625 l 0,-64.625 -3.78125,0 -23.03125,9.34375 0,3.59375 c 2.28,-0.83993 4.25749,-1.24993 5.9375,-1.25 1.55999,7e-5 2.75374,0.37382 3.59375,1.09375 0.83999,0.72007 1.48874,2.01757 1.96875,3.9375 0.47999,2.52006 0.74999,8.17756 0.75,16.9375 l 0,30.96875 c -1e-5,5.04001 -0.44126,8.45001 -1.28125,10.25 -0.72001,1.68001 -1.74251,2.94126 -3.0625,3.78125 -1.32001,0.72 -3.94626,1.0625 -7.90625,1.0625 l 0,0.6875 c -1.61309,-0.72641 -2.97152,-1.54999 -4.0625,-2.46875 -1.92007,-3.35999 -2.80757,-8.40499 -2.6875,-15.125 l 0,-138.96875 -3.96875,0 z m -338.40625,37.625 c -10.32005,1.2e-4 -19.21629,2.52262 -26.65625,7.5625 -8.88002,6.24011 -15.90252,15.06885 -21.0625,26.46875 -4.32001,9.60008 -6.46876,19.62257 -6.46875,30.0625 -1e-5,14.52004 3.81999,27.27253 11.5,38.3125 10.19997,14.76 25.19996,22.15625 45,22.15625 6.83993,0 12.12368,-0.135 15.84375,-0.375 l 5.21875,-0.15625 0,5.9375 0.1875,15.125 0,1.25 -0.1875,1.4375 -0.15625,1.8125 -0.375,1.59375 -0.90625,1.28125 -1.0625,1.0625 -1.4375,0.71875 -1.625,0.1875 -2,-0.1875 -1.59375,-0.34375 -15.125,-5.21875 -0.375,2.5 c 14.15993,12.47996 27.31741,12.30871 39.4375,-0.53125 l 0.15625,-36.53125 0,-36.53125 c -1e-4,-6.35995 0.44115,-10.6212 1.28125,-12.78125 1.5599,-3.11994 4.32115,-4.68744 8.28125,-4.6875 l 1.78125,0 0,-3.25 -39.40625,0 0,3.25 c 4.07993,6e-5 6.90867,0.47756 8.46875,1.4375 1.55992,0.96006 2.68617,2.39256 3.40625,4.3125 0.83992,1.80005 1.24992,5.7188 1.25,11.71875 l 0,34.375 c -3.12008,2.16001 -6.46258,3.83126 -10.0625,5.03125 -3.48007,1.08 -7.09257,1.625 -10.8125,1.625 -6.48006,0 -12.7863,-2.14874 -18.90625,-6.46875 -6.12004,-4.43999 -11.09753,-11.35873 -14.9375,-20.71875 -3.72003,-9.35996 -5.56252,-19.72495 -5.5625,-31.125 -2e-5,-13.91992 2.82872,-25.98741 8.46875,-36.1875 6.83996,-11.99989 16.79495,-17.99988 29.875,-18 9.47993,1.2e-4 17.25492,3.41011 23.375,10.25 4.19991,4.8001 7.64116,11.89009 10.28125,21.25 l 2.6875,0 -2.6875,-37.625 -2.71875,0 c -0.24009,3.00012 -0.71759,5.04512 -1.4375,6.125 -0.60009,0.96011 -1.38384,1.43761 -2.34375,1.4375 -0.96009,1.1e-4 -2.80259,-0.64864 -5.5625,-1.96875 -5.64008,-2.39988 -9.96882,-3.89988 -12.96875,-4.5 -3.00007,-0.71988 -6.34256,-1.09363 -10.0625,-1.09375 z m 504.75,3.25 c -17.40005,1.2e-4 -32.26503,6.64886 -44.625,19.96875 -12.36001,13.20009 -18.5625,30.34882 -18.5625,51.46875 0.84,24.84002 8.06499,43.34875 21.625,55.46875 10.79997,8.99998 22.25495,14.38748 34.375,16.1875 13.79995,1.43997 24.84495,0.89497 33.12505,-1.625 8.3999,-2.40002 15.2198,-7.24252 20.5,-14.5625 l 0,-5.0625 c -6.8402,7.19999 -18.5339,11.22249 -35.0938,12.0625 -11.76006,0.95998 -24.4088,-3.95001 -37.96875,-14.75 -14.16002,-16.67998 -19.92127,-36.17996 -17.28125,-58.5 2.87998,-17.03992 8.16372,-30.36866 15.84375,-39.96875 5.87996,-7.19989 13.65495,-10.78114 23.375,-10.78125 5.87995,1.1e-4 12.08245,1.84261 18.56245,5.5625 3.24,3.0001 4.6725,6.5451 4.3126,10.625 -0.4801,3.12009 0.1686,6.22384 1.9687,9.34375 2.8799,3.72008 6.7312,5.72883 11.5313,5.96875 4.1998,8e-5 7.3036,-1.26117 9.3437,-3.78125 2.0399,-2.51992 3.0624,-5.65491 3.0625,-9.375 -1.4401,-6.7199 -5.8726,-13.09365 -13.3125,-19.09375 -7.4401,-6.11988 -17.7013,-9.15613 -30.78125,-9.15625 z m -137.4375,-0.66926 c 0,0 -1.90452,6.98641 -3.7045,8.7863 -1.68001,1.68011 -5.29551,5.20682 -5.2955,7.72671 -1e-5,2.4001 0.81999,4.48135 2.5,6.28125 1.79998,1.80009 3.97998,2.71884 6.5,2.71875 2.39998,9e-5 4.41373,-0.91866 6.09375,-2.71875 1.79997,-1.7999 2.71872,-3.88115 2.71875,-6.28125 -3e-5,-2.51989 -3.75104,-5.83344 -5.42586,-7.63833 -3.09423,-3.83282 -3.38664,-8.87468 -3.38664,-8.87468 z m 415.18745,-2.74004 c 0,0 -0.4903,8.04707 -4.6768,12.41022 -1.645,1.71441 -4.3232,4.32294 -4.3232,6.84283 0,2.4001 0.82,4.48135 2.5,6.28125 1.8,1.80009 3.98,2.71884 6.5,2.71875 2.4,9e-5 4.445,-0.91866 6.125,-2.71875 1.8,-1.7999 2.6875,-3.88115 2.6876,-6.28125 -1e-4,-2.51989 -2.6407,-5.15273 -4.5108,-6.75444 -3.4478,-3.39088 -4.3018,-12.49861 -4.3018,-12.49861 z m 273.24475,1.54594 c 0,0 -0.4591,7.29662 -4.4687,10.86428 -1.7751,1.57943 -4.6197,4.32294 -4.6197,6.84283 0,2.4001 0.8512,4.48135 2.5313,6.28125 1.7999,1.80009 3.9487,2.71884 6.4687,2.71875 2.4,9e-5 4.445,-0.91866 6.125,-2.71875 1.8,-1.7999 2.6875,-3.88115 2.6875,-6.28125 0,-2.51989 -3.4844,-5.00572 -5.2178,-6.75444 -3.0059,-3.47927 -3.5063,-10.95267 -3.5063,-10.95267 z m -172.71345,24.86336 c -1.5337,-0.0206 -3.2175,0.0538 -5.0625,0.21875 l 0,3.21875 c 2.9999,9e-5 4.9774,0.20259 5.9375,0.5625 1.0799,0.24009 1.9312,0.78509 2.5313,1.625 0.4799,0.60009 0.7186,1.31634 0.7187,2.15625 -10e-5,1.68009 -0.6801,4.13508 -2,7.375 l -30.0625,61.1875 -18.7188,-44.4375 c -1.2,-2.87993 -1.7812,-5.36618 -1.7812,-7.40625 0,-1.91993 0.5812,-3.41993 1.7812,-4.5 1.2,-1.07992 2.9388,-1.59367 5.2188,-1.59375 l 2.3438,0 0,-3.25 -37.7813,0 0,3.25 c 2.88,0.48008 4.8575,0.95758 5.9375,1.4375 1.8,0.96007 3.2325,2.15382 4.3125,3.59375 1.2,1.32007 2.4612,3.53632 3.7813,6.65625 l 28.7812,68.03125 3.625,0 39.7812,-84.0625 c 4.515,-9.23992 1.3925,-13.91806 -9.3437,-14.0625 z M 11.2031,509.1216 c -9.36003,8e-5 -16.62127,2.11258 -21.78125,6.3125 -5.16001,4.20007 -7.71876,8.80382 -7.71875,13.84375 -10e-6,2.64006 0.64874,4.75256 1.96875,6.3125 1.43999,1.56006 3.24624,2.3438 5.40625,2.34375 2.27999,5e-5 4.08623,-0.71619 5.40625,-2.15625 1.43998,-1.55994 2.15623,-3.67244 2.15625,-6.3125 l -0.1875,-5.03125 c -2e-5,-2.63993 1.08998,-4.92368 3.25,-6.84375 2.15997,-2.03992 5.09247,-3.06242 8.8125,-3.0625 4.91996,8e-5 8.63621,1.50008 11.15625,4.5 2.51995,3.00007 3.7812,6.78382 3.78125,11.34375 l 0,3.0625 c -12.48003,4.08006 -21.54753,7.7288 -27.1875,10.96875 -5.64001,3.24005 -10.07251,7.09129 -13.3125,11.53125 -3.36,5.16003 -4.7925,10.85378 -4.3125,17.09375 0,6.12001 1.80625,11.09751 5.40625,14.9375 3.59999,3.84 8.13623,5.75 13.65625,5.75 3.59998,0 7.04122,-0.71625 10.28125,-2.15625 2.03997,-1.08 7.18871,-4.79624 15.46875,-11.15625 0.11995,4.80001 1.00745,8.21 2.6875,10.25 1.67995,1.92 3.9637,2.90625 6.84375,2.90625 5.99994,0 12.23868,-4.39625 18.71875,-13.15625 l 0,-4.84375 c -3.48007,3.48001 -5.80007,5.56126 -7,6.28125 -0.72007,0.48001 -1.57132,0.71876 -2.53125,0.71875 -0.84006,1e-5 -1.62381,-0.30624 -2.34375,-0.90625 -0.72006,-0.59999 -1.19756,-1.72624 -1.4375,-3.40625 -0.24006,-1.79998 -0.34381,-6.53873 -0.34375,-14.21875 l 0,-27.375 c -6e-5,-7.67994 -0.54506,-12.76118 -1.625,-15.28125 -1.68006,-3.95992 -4.27006,-6.85617 -7.75,-8.65625 -4.56005,-2.39992 -10.38879,-3.59367 -17.46875,-3.59375 z m 433.49995,0 c -9.36,8e-5 -16.6212,2.11258 -21.7812,6.3125 -5.16,4.20007 -7.75,8.80382 -7.75,13.84375 0,2.64006 0.6487,4.75256 1.9688,6.3125 1.4399,1.56006 3.2462,2.3438 5.4062,2.34375 2.28,5e-5 4.0862,-0.71619 5.4062,-2.15625 1.44,-1.55994 2.1563,-3.67244 2.1563,-6.3125 l -0.1875,-5.03125 c 0,-2.63993 1.09,-4.92368 3.25,-6.84375 2.16,-2.03992 5.0925,-3.06242 8.8125,-3.0625 4.92,8e-5 8.6362,1.50008 11.1563,4.5 2.5199,3.00007 3.7812,6.78382 3.7812,11.34375 l 0,3.0625 c -12.48,4.08006 -21.5163,7.7288 -27.1562,10.96875 -5.6401,3.24005 -10.1038,7.09129 -13.3438,11.53125 -3.36,5.16003 -4.7925,10.85378 -4.3125,17.09375 0,6.12001 1.8062,11.09751 5.4063,14.9375 3.5999,3.84 8.1674,5.75 13.6874,5.75 3.6,0 7.01,-0.71625 10.25,-2.15625 2.04,-1.08 7.1888,-4.79624 15.4688,-11.15625 0.12,4.80001 1.0387,8.21 2.7188,10.25 1.6799,1.92 3.9636,2.90625 6.8437,2.90625 5.9999,0 12.2387,-4.39625 18.7187,-13.15625 l 0,-4.84375 c -3.48,3.48001 -5.8313,5.56126 -7.0312,6.28125 -0.7201,0.48001 -1.5713,0.71876 -2.5312,0.71875 -0.8401,1e-5 -1.6239,-0.30624 -2.3438,-0.90625 -0.7201,-0.59999 -1.1976,-1.72624 -1.4375,-3.40625 -0.2401,-1.79998 -0.3438,-6.53873 -0.3437,-14.21875 l 0,-27.375 c -10e-5,-7.67994 -0.5451,-12.76118 -1.625,-15.28125 -1.6801,-3.95992 -4.2701,-6.85617 -7.75,-8.65625 -4.5601,-2.39992 -10.3576,-3.59367 -17.4376,-3.59375 z m 206.4688,0.375 -23.0312,9.34375 0,3.59375 c 2.2799,-0.83993 4.2574,-1.24993 5.9374,-1.25 1.56,7e-5 2.7538,0.37382 3.5938,1.09375 0.84,0.72007 1.52,2.01757 2,3.9375 0.48,2.52006 0.7187,8.17756 0.7188,16.9375 l 0,30.96875 c -1e-4,5.04001 -0.4413,8.45001 -1.2813,10.25 -0.72,1.68001 -1.7113,2.94126 -3.0313,3.78125 -1.32,0.72 -3.9775,1.0625 -7.9374,1.0625 l 0,3.25 39.0624,0 0,-3.25 c -3.84,0 -6.4662,-0.41 -7.9062,-1.25 -1.44,-0.83999 -2.53,-2.10124 -3.25,-3.78125 -0.72,-1.67999 -1.0938,-5.02249 -1.0938,-10.0625 l 0,-64.625 -3.7812,0 z m 273.18755,0 -23.0625,9.34375 0,3.59375 c 2.28,-0.83993 4.2575,-1.24993 5.9375,-1.25 1.56,7e-5 2.785,0.37382 3.625,1.09375 0.84,0.72007 1.4887,2.01757 1.9687,3.9375 0.48,2.52006 0.7188,8.17756 0.7188,16.9375 l 0,30.96875 c 0,5.04001 -0.41,8.45001 -1.25,10.25 -0.72,1.68001 -1.7425,2.94126 -3.0625,3.78125 -1.32,0.72 -3.9775,1.0625 -7.9375,1.0625 l 0,3.25 39.0625,0 0,-3.25 c -3.84,0 -6.4663,-0.41 -7.9063,-1.25 -1.44,-0.83999 -2.53,-2.10124 -3.25,-3.78125 -0.72,-1.67999 -1.0625,-5.02249 -1.0624,-10.0625 l 0,-64.625 -3.7813,0 z m -982.43755,0.53125 -24.3125,9.71875 0.90625,3.25 c 2.28,-0.95993 4.32499,-1.43743 6.125,-1.4375 1.55999,7e-5 2.82124,0.41007 3.78125,1.25 1.07999,0.84007 1.79624,2.16882 2.15625,3.96875 0.35999,1.80006 0.53124,7.35881 0.53125,16.71875 l 0,49.34375 c -1e-5,4.8 -0.10376,7.66499 -0.34375,8.625 -0.60001,2.03999 -1.62251,3.53999 -3.0625,4.5 -2.04001,1.19999 -5.10751,1.81249 -9.1875,1.8125 l 0,3.21875 41.21875,0 0,-3.21875 c -3.60004,-10e-6 -6.42879,-0.54501 -8.46875,-1.625 -1.92003,-0.96001 -3.21753,-2.22126 -3.9375,-3.78125 -1.08003,-2.28001 -1.62503,-5.65375 -1.625,-10.09375 l 0,-56.875 c 2.75997,-5.51994 5.45372,-9.47493 8.09375,-11.875 1.19996,-1.19993 2.32621,-1.81243 3.40625,-1.8125 1.19996,7e-5 3.07371,1.02257 5.59375,3.0625 2.63995,2.04007 4.9912,3.06256 7.03125,3.0625 2.15994,6e-5 3.93494,-0.78368 5.375,-2.34375 1.55994,-1.55993 2.34369,-3.46993 2.34375,-5.75 -6e-5,-2.63992 -1.05881,-4.92367 -3.21875,-6.84375 -2.04006,-1.91992 -4.69755,-2.87492 -7.9375,-2.875 -7.08004,8e-5 -13.96754,6.00008 -20.6875,18 l 0,-18 -3.78125,0 z m 136.5625,0 -24.28125,9.71875 1.25,3.25 c 2.28,-0.95993 4.25749,-1.43743 5.9375,-1.4375 1.55999,7e-5 2.75374,0.41007 3.59375,1.25 0.95999,0.72007 1.63999,2.15257 2,4.3125 0.47999,2.04006 0.71874,7.93631 0.71875,17.65625 l 0,29.875 c -1e-5,5.88001 -0.71626,9.83501 -2.15625,11.875 -1.44001,2.04 -4.20126,3.0625 -8.28125,3.0625 l -1.8125,0 0,3.25 39.96875,0 0,-3.25 c -4.44004,0 -7.37253,-0.37375 -8.8125,-1.09375 -1.44003,-0.83999 -2.59753,-2.10124 -3.4375,-3.78125 -0.60003,-1.31999 -0.90628,-4.66249 -0.90625,-10.0625 l 0,-42.5 c 6.83996,-7.55993 13.75871,-11.31243 20.71875,-11.3125 4.55995,7e-5 7.79869,1.67132 9.71875,5.03125 1.91994,3.24006 2.87494,8.52381 2.875,15.84375 l 0,70.5625 c -0.60006,14.87997 8.87743,20.40246 28.4375,16.5625 -4.92009,-1.08003 -8.09133,-2.06628 -9.53125,-2.90625 -1.44008,-0.72003 -2.53008,-1.77878 -3.25,-3.21875 -0.84008,-1.92003 -1.25008,-5.39752 -1.25,-10.4375 l 0,-72 c -8e-5,-7.31994 -0.61258,-12.73868 -1.8125,-16.21875 -1.92007,-5.03993 -4.51007,-8.62117 -7.75,-10.78125 -3.12006,-2.15992 -6.83631,-3.24992 -11.15625,-3.25 -8.64005,8e-5 -17.64004,5.62633 -27,16.90625 l 0,-16.90625 -3.78125,0 z m 433.6563,0 -24.2813,9.71875 0.9063,3.25 c 2.2799,-0.95993 4.2937,-1.43743 6.0937,-1.4375 1.56,7e-5 2.8212,0.41007 3.7813,1.25 1.0799,0.84007 1.8274,2.16882 2.1874,3.96875 0.36,1.80006 0.5313,7.35881 0.5313,16.71875 l 0,49.34375 c 0,4.8 -0.135,7.66499 -0.375,8.625 -0.6,2.03999 -1.6225,3.53999 -3.0625,4.5 -2.04,1.19999 -5.0763,1.81249 -9.1562,1.8125 l 0,3.21875 41.2187,0 0,-3.21875 c -3.6,-10e-6 -6.4288,-0.54501 -8.4687,-1.625 -1.9201,-0.96001 -3.2488,-2.22126 -3.9688,-3.78125 -1.08,-2.28001 -1.625,-5.65375 -1.625,-10.09375 l 0,-56.875 c 2.76,-5.51994 5.485,-9.47493 8.125,-11.875 1.2,-1.19993 2.3262,-1.81243 3.4062,-1.8125 1.2,7e-5 3.0738,1.02257 5.5938,3.0625 2.64,2.04007 4.9599,3.06256 7,3.0625 2.1599,6e-5 3.9662,-0.78368 5.4062,-2.34375 1.56,-1.55993 2.3437,-3.46993 2.3438,-5.75 -10e-5,-2.63992 -1.0901,-4.92367 -3.25,-6.84375 -2.0401,-1.91992 -4.6663,-2.87492 -7.9062,-2.875 -7.0801,8e-5 -13.9988,6.00008 -20.7188,18 l 0,-18 -3.7812,0 z m 35.6562,9.71875 1.25,3.25 c 2.28,-0.95993 4.2575,-1.43743 5.9375,-1.4375 1.56,7e-5 2.7537,0.41007 3.5937,1.25 0.96,0.72007 1.64,2.15257 2,4.3125 0.48,2.04006 0.7188,7.93631 0.7188,17.65625 l 0,29.875 c 0,5.88001 -0.7163,9.83501 -2.1562,11.875 -1.4401,2.04 -4.2013,3.0625 -8.2813,3.0625 l -1.8125,0 0,3.25 39.9688,0 0,-3.25 c -4.4401,0 -7.3726,-0.37375 -8.8126,-1.09375 -1.44,-0.83999 -2.5975,-2.10124 -3.4374,-3.78125 -0.6001,-1.31999 -0.9063,-4.66249 -0.9063,-10.0625 l 0,-42.5 c 6.84,-7.55993 13.7587,-11.31243 20.7187,-11.3125 4.56,7e-5 7.7987,1.67132 9.7188,5.03125 1.9199,3.24006 2.8749,8.52381 2.875,15.84375 l 0,70.5625 c -0.6001,14.87997 8.8774,20.40246 28.4375,16.5625 -4.9201,-1.08003 -8.0913,-2.06628 -9.5313,-2.90625 -1.44,-0.72003 -2.53,-1.77878 -3.25,-3.21875 -0.84,-1.92003 -1.25,-5.39752 -1.25,-10.4375 l 0,-72 c 0,-7.31994 -0.6125,-12.73868 -1.8124,-16.21875 -1.9201,-5.03993 -4.5101,-8.62117 -7.75,-10.78125 -3.1201,-2.15992 -6.8364,-3.24992 -11.1563,-3.25 -8.64,8e-5 -17.64,5.62633 -27,16.90625 l 0,-16.90625 -3.7813,0 -24.2812,9.71875 z m 316.96885,-9.71875 -24.2813,9.71875 0.875,3.25 c 2.28,-0.95993 4.325,-1.43743 6.125,-1.4375 1.56,7e-5 2.8212,0.41007 3.7813,1.25 1.0799,0.84007 1.7962,2.16882 2.1562,3.96875 0.36,1.80006 0.5625,7.35881 0.5625,16.71875 l 0,49.34375 c 0,4.8 -0.135,7.66499 -0.375,8.625 -0.6,2.03999 -1.6225,3.53999 -3.0625,4.5 -2.04,1.19999 -5.1075,1.81249 -9.1875,1.8125 l 0,3.21875 41.2187,0 0,-3.21875 c -3.6,-10e-6 -6.3975,-0.54501 -8.4374,-1.625 -1.9201,-0.96001 -3.2488,-2.22126 -3.9688,-3.78125 -1.08,-2.28001 -1.625,-5.65375 -1.625,-10.09375 l 0,-56.875 c 2.76,-5.51994 5.4537,-9.47493 8.0938,-11.875 1.1999,-1.19993 2.3574,-1.81243 3.4374,-1.8125 1.2,7e-5 3.0425,1.02257 5.5626,3.0625 2.6399,2.04007 4.9911,3.06256 7.0312,3.0625 2.1599,6e-5 3.9662,-0.78368 5.4062,-2.34375 1.56,-1.55993 2.3437,-3.46993 2.3438,-5.75 -1e-4,-2.63992 -1.0901,-4.92367 -3.25,-6.84375 -2.0401,-1.91992 -4.6663,-2.87492 -7.9062,-2.875 -7.0801,8e-5 -13.9988,6.00008 -20.7188,18 l 0,-18 -3.7812,0 z m -65.18765,1.09375 c -5.76,8e-5 -10.395,1.91008 -13.875,5.75 -4.56,-0.23992 -8.8212,0.88633 -12.7812,3.40625 -9.6,7.92006 -14.4062,17.94255 -14.4062,30.0625 l 0,1.28125 c 0,5.28004 0.8512,10.42878 2.5312,15.46875 7.8,17.16001 19.8,25.75 36,25.75 2.88,0 6.2537,-0.50875 10.0938,-1.46875 10.43995,-3.36 17.70115,-8.13499 21.78125,-14.375 5.3999,-8.27998 8.0937,-17.48247 8.0938,-27.5625 -1e-4,-9.11995 -4.3289,-18.93994 -12.9688,-29.5 -6.0001,-5.87992 -14.1488,-8.81242 -24.46885,-8.8125 z m -2.1562,4.65625 c 6.72,0.72008 12.58495,3.72007 17.62505,9 5.2799,7.80006 8.1087,17.00255 8.4688,27.5625 l 0,1.0625 c -1e-4,8.76003 -2.4189,17.21502 -7.2188,25.375 -5.1601,6.60001 -11.80885,9.90625 -19.96885,9.90625 -4.2,0 -8.3262,-1.49999 -12.4062,-4.5 -8.04,-7.67998 -12.0625,-18.52247 -12.0625,-32.5625 0,-8.99995 1.8062,-17.17994 5.4063,-24.5 2.2799,-3.23993 4.7349,-5.28493 7.375,-6.125 l 0,0.90625 0.5312,3.59375 c 1.68,5.04006 5.09,7.69756 10.25,7.9375 l 3.25,-0.375 c 1.8,-0.47994 2.755,-1.53869 2.875,-3.21875 -0.48,-2.39993 -1.6738,-3.62493 -3.5938,-3.625 -1.2,7e-5 -2.835,0.47757 -4.875,1.4375 -3.48,-1.43993 -5.2187,-3.41743 -5.2187,-5.9375 l 0,-1.25 0.375,-1.4375 c 0,-2.15992 3.0675,-3.24992 9.1875,-3.25 z m -624.53125,0.1875 c 2.75996,8e-5 5.5887,0.85133 8.46875,2.53125 2.99995,1.68007 5.31995,4.13507 7,7.375 1.79994,3.24006 2.88994,6.82131 3.25,10.78125 l 0,41.0625 c -5.04005,5.28001 -10.1888,7.90626 -15.46875,7.90625 -6.36004,1e-5 -12.12128,-3.10374 -17.28125,-9.34375 -5.16002,-6.23998 -7.75002,-15.23997 -7.75,-27 -2e-5,-11.51994 2.69373,-20.28119 8.09375,-26.28125 3.95997,-4.67993 8.52747,-7.03117 13.6875,-7.03125 z m -149.4375,22.875 0,35.8125 c -7.32004,5.88001 -13.18503,8.81251 -17.625,8.8125 -3.24003,1e-5 -6.13627,-1.36499 -8.65625,-4.125 -2.52002,-2.75998 -4.25877,-6.20123 -5.21875,-10.28125 -0.12002,-3.47997 0.73123,-7.02497 2.53125,-10.625 1.79998,-3.71996 5.75498,-7.74246 11.875,-12.0625 2.51997,-1.55995 8.21371,-4.0512 17.09375,-7.53125 z m 433.46875,0 0,35.8125 c -7.32,5.88001 -13.185,8.81251 -17.625,8.8125 -3.24,1e-5 -6.1363,-1.36499 -8.6562,-4.125 -2.5201,-2.75998 -4.2588,-6.20123 -5.2188,-10.28125 -0.12,-3.47997 0.7312,-7.02497 2.5312,-10.625 1.8,-3.71996 5.755,-7.74246 11.875,-12.0625 2.52,-1.55995 8.2138,-4.0512 17.0938,-7.53125 z"
       id="text2842"
       sodipodi:nodetypes="cccsccccscscsscccccccsscccccssccccccccccccccscscccccccccccccccccccccccccsccccsccscsccccccscccccccccccccccsccccsccccsscscscccsscscscccsscscscccccccscccsscccccccccccccsscsccccssccsccsscccscccsscccccccsscsccccssccsccsscccscccsscccccccccsscccccccccssccccccsscccccccccssccccccscscccccccccccccscscscsccccccsccccscccccccccsccccccccccsccccccscscccccccccccccscscscscccccsccccscccccccccsccccccccccscccccccscscccccccccccccscscscscccccccccsccscccccccscscccccccsccccccccccsssccccssccccccsscccc" />
  </g>
</svg>
