<?xml version="1.0" encoding="UTF-8" standalone="no"?>
<!-- Created with Inkscape (http://www.inkscape.org/) -->

<svg
   xmlns:dc="http://purl.org/dc/elements/1.1/"
   xmlns:cc="http://creativecommons.org/ns#"
   xmlns:rdf="http://www.w3.org/1999/02/22-rdf-syntax-ns#"
   xmlns:svg="http://www.w3.org/2000/svg"
   xmlns="http://www.w3.org/2000/svg"
   xmlns:xlink="http://www.w3.org/1999/xlink"
   xmlns:sodipodi="http://sodipodi.sourceforge.net/DTD/sodipodi-0.dtd"
   xmlns:inkscape="http://www.inkscape.org/namespaces/inkscape"
   id="svg2876"
   version="1.1"
   inkscape:version="0.47 r22583"
   width="377.68961"
   height="377.71982"
   sodipodi:docname="progetto_logo.svg"
   inkscape:export-filename="/home/frasten/develop/grandicarnivori/mystique-personalizzazioni/img/logo.png"
   inkscape:export-xdpi="34.402084"
   inkscape:export-ydpi="34.402084">
  <metadata
     id="metadata2882">
    <rdf:RDF>
      <cc:Work
         rdf:about="">
        <dc:format>image/svg+xml</dc:format>
        <dc:type
           rdf:resource="http://purl.org/dc/dcmitype/StillImage" />
        <dc:title />
      </cc:Work>
    </rdf:RDF>
  </metadata>
  <defs
     id="defs2880">
    <linearGradient
       inkscape:collect="always"
       id="linearGradient3630">
      <stop
         style="stop-color:#008800;stop-opacity:1;"
         offset="0"
         id="stop3632" />
      <stop
         style="stop-color:#008800;stop-opacity:0;"
         offset="1"
         id="stop3634" />
    </linearGradient>
    <linearGradient
       id="linearGradient4035">
      <stop
         style="stop-color:#ffffff;stop-opacity:1;"
         offset="0"
         id="stop4037" />
      <stop
         style="stop-color:#b3ff92;stop-opacity:1;"
         offset="1"
         id="stop4039" />
    </linearGradient>
    <inkscape:perspective
       sodipodi:type="inkscape:persp3d"
       inkscape:vp_x="0 : 0.5 : 1"
       inkscape:vp_y="0 : 1000 : 0"
       inkscape:vp_z="1 : 0.5 : 1"
       inkscape:persp3d-origin="0.5 : 0.33333333 : 1"
       id="perspective2884" />
    <inkscape:perspective
       id="perspective3058"
       inkscape:persp3d-origin="0.5 : 0.33333333 : 1"
       inkscape:vp_z="1 : 0.5 : 1"
       inkscape:vp_y="0 : 1000 : 0"
       inkscape:vp_x="0 : 0.5 : 1"
       sodipodi:type="inkscape:persp3d" />
    <inkscape:perspective
       id="perspective3138"
       inkscape:persp3d-origin="0.5 : 0.33333333 : 1"
       inkscape:vp_z="1 : 0.5 : 1"
       inkscape:vp_y="0 : 1000 : 0"
       inkscape:vp_x="0 : 0.5 : 1"
       sodipodi:type="inkscape:persp3d" />
    <inkscape:perspective
       id="perspective3218"
       inkscape:persp3d-origin="0.5 : 0.33333333 : 1"
       inkscape:vp_z="1 : 0.5 : 1"
       inkscape:vp_y="0 : 1000 : 0"
       inkscape:vp_x="0 : 0.5 : 1"
       sodipodi:type="inkscape:persp3d" />
    <radialGradient
       inkscape:collect="always"
       xlink:href="#linearGradient4035"
       id="radialGradient4041"
       cx="278.29691"
       cy="-61.968231"
       fx="278.29691"
       fy="-61.968231"
       r="138.68008"
       gradientUnits="userSpaceOnUse"
       gradientTransform="matrix(0.70710678,0.70710678,-0.70710678,0.70710678,-44.894754,42.741559)" />
    <radialGradient
       inkscape:collect="always"
       xlink:href="#linearGradient4035"
       id="radialGradient4058"
       cx="195.70312"
       cy="195.70312"
       fx="195.70312"
       fy="195.70312"
       r="196.20312"
       gradientUnits="userSpaceOnUse" />
    <radialGradient
       inkscape:collect="always"
       xlink:href="#linearGradient4035"
       id="radialGradient4135"
       gradientUnits="userSpaceOnUse"
       cx="195.70312"
       cy="195.70312"
       fx="195.70312"
       fy="195.70312"
       r="196.20312"
       gradientTransform="translate(432.74935,-0.99999918)" />
    <radialGradient
       inkscape:collect="always"
       xlink:href="#linearGradient4035"
       id="radialGradient4147"
       cx="276.77438"
       cy="0.125"
       fx="276.77438"
       fy="0.125"
       r="139.82469"
       gradientUnits="userSpaceOnUse"
       gradientTransform="matrix(0.70710678,0.70710678,-0.70710678,0.70710678,0,0)" />
    <radialGradient
       inkscape:collect="always"
       xlink:href="#linearGradient3630"
       id="radialGradient3638"
       cx="982.82715"
       cy="183.41682"
       fx="982.82715"
       fy="183.41682"
       r="565.86597"
       gradientTransform="matrix(1,0,0,0.18426626,0,149.6193)"
       gradientUnits="userSpaceOnUse" />
    <inkscape:perspective
       id="perspective3781"
       inkscape:persp3d-origin="0.5 : 0.33333333 : 1"
       inkscape:vp_z="1 : 0.5 : 1"
       inkscape:vp_y="0 : 1000 : 0"
       inkscape:vp_x="0 : 0.5 : 1"
       sodipodi:type="inkscape:persp3d" />
    <inkscape:perspective
       id="perspective3832"
       inkscape:persp3d-origin="0.5 : 0.33333333 : 1"
       inkscape:vp_z="1 : 0.5 : 1"
       inkscape:vp_y="0 : 1000 : 0"
       inkscape:vp_x="0 : 0.5 : 1"
       sodipodi:type="inkscape:persp3d" />
    <inkscape:perspective
       id="perspective3854"
       inkscape:persp3d-origin="0.5 : 0.33333333 : 1"
       inkscape:vp_z="1 : 0.5 : 1"
       inkscape:vp_y="0 : 1000 : 0"
       inkscape:vp_x="0 : 0.5 : 1"
       sodipodi:type="inkscape:persp3d" />
    <inkscape:perspective
       id="perspective3881"
       inkscape:persp3d-origin="0.5 : 0.33333333 : 1"
       inkscape:vp_z="1 : 0.5 : 1"
       inkscape:vp_y="0 : 1000 : 0"
       inkscape:vp_x="0 : 0.5 : 1"
       sodipodi:type="inkscape:persp3d" />
    <inkscape:perspective
       id="perspective3924"
       inkscape:persp3d-origin="0.5 : 0.33333333 : 1"
       inkscape:vp_z="1 : 0.5 : 1"
       inkscape:vp_y="0 : 1000 : 0"
       inkscape:vp_x="0 : 0.5 : 1"
       sodipodi:type="inkscape:persp3d" />
    <inkscape:perspective
       id="perspective3951"
       inkscape:persp3d-origin="0.5 : 0.33333333 : 1"
       inkscape:vp_z="1 : 0.5 : 1"
       inkscape:vp_y="0 : 1000 : 0"
       inkscape:vp_x="0 : 0.5 : 1"
       sodipodi:type="inkscape:persp3d" />
    <inkscape:perspective
       id="perspective3973"
       inkscape:persp3d-origin="0.5 : 0.33333333 : 1"
       inkscape:vp_z="1 : 0.5 : 1"
       inkscape:vp_y="0 : 1000 : 0"
       inkscape:vp_x="0 : 0.5 : 1"
       sodipodi:type="inkscape:persp3d" />
    <inkscape:perspective
       id="perspective4002"
       inkscape:persp3d-origin="0.5 : 0.33333333 : 1"
       inkscape:vp_z="1 : 0.5 : 1"
       inkscape:vp_y="0 : 1000 : 0"
       inkscape:vp_x="0 : 0.5 : 1"
       sodipodi:type="inkscape:persp3d" />
    <filter
       color-interpolation-filters="sRGB"
       inkscape:collect="always"
       id="filter3820-0-9">
      <feGaussianBlur
         inkscape:collect="always"
         stdDeviation="1.9869533"
         id="feGaussianBlur3822-7-5" />
    </filter>
    <inkscape:perspective
       id="perspective4031"
       inkscape:persp3d-origin="0.5 : 0.33333333 : 1"
       inkscape:vp_z="1 : 0.5 : 1"
       inkscape:vp_y="0 : 1000 : 0"
       inkscape:vp_x="0 : 0.5 : 1"
       sodipodi:type="inkscape:persp3d" />
    <filter
       color-interpolation-filters="sRGB"
       inkscape:collect="always"
       id="filter3820-5">
      <feGaussianBlur
         inkscape:collect="always"
         stdDeviation="1.9869533"
         id="feGaussianBlur3822-3" />
    </filter>
    <inkscape:perspective
       id="perspective4059"
       inkscape:persp3d-origin="0.5 : 0.33333333 : 1"
       inkscape:vp_z="1 : 0.5 : 1"
       inkscape:vp_y="0 : 1000 : 0"
       inkscape:vp_x="0 : 0.5 : 1"
       sodipodi:type="inkscape:persp3d" />
    <filter
       color-interpolation-filters="sRGB"
       inkscape:collect="always"
       id="filter3820-0-8-1">
      <feGaussianBlur
         inkscape:collect="always"
         stdDeviation="1.9869533"
         id="feGaussianBlur3822-7-7-2" />
    </filter>
    <inkscape:perspective
       id="perspective4087"
       inkscape:persp3d-origin="0.5 : 0.33333333 : 1"
       inkscape:vp_z="1 : 0.5 : 1"
       inkscape:vp_y="0 : 1000 : 0"
       inkscape:vp_x="0 : 0.5 : 1"
       sodipodi:type="inkscape:persp3d" />
    <filter
       color-interpolation-filters="sRGB"
       inkscape:collect="always"
       id="filter3820-0-8-3-9">
      <feGaussianBlur
         inkscape:collect="always"
         stdDeviation="1.9869533"
         id="feGaussianBlur3822-7-7-8-3" />
    </filter>
    <inkscape:perspective
       id="perspective4115"
       inkscape:persp3d-origin="0.5 : 0.33333333 : 1"
       inkscape:vp_z="1 : 0.5 : 1"
       inkscape:vp_y="0 : 1000 : 0"
       inkscape:vp_x="0 : 0.5 : 1"
       sodipodi:type="inkscape:persp3d" />
    <linearGradient
       inkscape:collect="always"
       xlink:href="#linearGradient4035-5"
       id="linearGradient3769-2"
       x1="188.8448"
       y1="-5.6843419e-14"
       x2="188.8448"
       y2="377.71982"
       gradientUnits="userSpaceOnUse" />
    <linearGradient
       id="linearGradient4035-5">
      <stop
         style="stop-color:#ffffff;stop-opacity:1;"
         offset="0"
         id="stop4037-1" />
      <stop
         style="stop-color:#b9ff81;stop-opacity:1;"
         offset="1"
         id="stop4039-1" />
    </linearGradient>
    <linearGradient
       y2="377.71982"
       x2="188.8448"
       y1="-5.6843419e-14"
       x1="188.8448"
       gradientUnits="userSpaceOnUse"
       id="linearGradient4124"
       xlink:href="#linearGradient4035-5"
       inkscape:collect="always"
       gradientTransform="translate(0,-1.8847657e-6)" />
    <inkscape:perspective
       id="perspective4153"
       inkscape:persp3d-origin="0.5 : 0.33333333 : 1"
       inkscape:vp_z="1 : 0.5 : 1"
       inkscape:vp_y="0 : 1000 : 0"
       inkscape:vp_x="0 : 0.5 : 1"
       sodipodi:type="inkscape:persp3d" />
    <inkscape:perspective
       id="perspective2882"
       inkscape:persp3d-origin="0.5 : 0.33333333 : 1"
       inkscape:vp_z="1 : 0.5 : 1"
       inkscape:vp_y="0 : 1000 : 0"
       inkscape:vp_x="0 : 0.5 : 1"
       sodipodi:type="inkscape:persp3d" />
    <inkscape:perspective
       id="perspective2904"
       inkscape:persp3d-origin="0.5 : 0.33333333 : 1"
       inkscape:vp_z="1 : 0.5 : 1"
       inkscape:vp_y="0 : 1000 : 0"
       inkscape:vp_x="0 : 0.5 : 1"
       sodipodi:type="inkscape:persp3d" />
    <filter
       color-interpolation-filters="sRGB"
       inkscape:collect="always"
       id="filter3820-0-9-4">
      <feGaussianBlur
         inkscape:collect="always"
         stdDeviation="1.9869533"
         id="feGaussianBlur3822-7-5-9" />
    </filter>
  </defs>
  <sodipodi:namedview
     pagecolor="#ffffff"
     bordercolor="#666666"
     borderopacity="1"
     objecttolerance="16"
     gridtolerance="15"
     guidetolerance="17"
     inkscape:pageopacity="0"
     inkscape:pageshadow="2"
     inkscape:window-width="1280"
     inkscape:window-height="749"
     id="namedview2878"
     showgrid="false"
     inkscape:zoom="1.4142136"
     inkscape:cx="310.65956"
     inkscape:cy="194.2837"
     inkscape:window-x="0"
     inkscape:window-y="24"
     inkscape:window-maximized="1"
     inkscape:current-layer="layer3"
     showguides="true"
     inkscape:guide-bbox="true">
    <sodipodi:guide
       position="377.68961,700.71997"
       orientation="0,-377.68961"
       id="guide2854" />
  </sodipodi:namedview>
  <g
     inkscape:groupmode="layer"
     id="layer1"
     inkscape:label="Quadrato"
     style="display:inline">
    <path
       style="fill:url(#linearGradient4124);fill-opacity:1;fill-rule:nonzero;stroke:#008800;stroke-width:3;stroke-linecap:butt;stroke-linejoin:round;stroke-miterlimit:4;stroke-opacity:1;stroke-dasharray:none"
       d="m 188.84481,1.4999981 c -5.11238,0 -10.23888,1.95763 -14.15625,5.875 L 7.376055,174.71875 c -7.83474,7.83474 -7.83474,20.44651 0,28.28125 L 174.68855,370.34375 c 7.83475,7.83474 20.44651,7.83474 28.28125,0 L 370.31356,203 c 7.83474,-7.83474 7.83474,-20.44651 0,-28.28125 L 202.96981,7.3749981 c -3.91737,-3.91737 -9.01261,-5.875 -14.125,-5.875 z"
       id="rect4139" />
  </g>
  <g
     inkscape:groupmode="layer"
     id="layer3"
     inkscape:label="Ombre"
     style="display:inline">
    <path
       id="path2914-2"
       d="m 211.56744,161.9206 c -3.5015,0.0557 -7.08744,-0.10398 -7.96874,-0.35486 -0.88132,-0.25088 -4.35284,-1.70094 -7.71452,-3.22234 -3.36169,-1.52141 -7.55528,-3.22081 -9.3191,-3.77644 -1.76381,-0.55563 -4.3524,-0.97078 -5.75243,-0.92255 -1.4,0.0483 -5.16711,1.02561 -8.37133,2.17198 -3.20423,1.14635 -6.99876,2.11056 -8.43231,2.14266 -1.43356,0.0321 -3.23934,-0.24984 -4.01287,-0.62656 -0.77352,-0.37673 -2.09177,-1.27861 -2.92941,-2.00419 -0.83765,-0.72559 -1.97267,-2.13849 -2.52225,-3.13977 -0.55594,-1.01289 -1.03615,-3.46798 -1.08242,-5.53411 -0.0554,-2.47422 0.34328,-4.64725 1.19461,-6.51119 0.70279,-1.5387 2.26806,-4.00838 3.47837,-5.48818 1.2103,-1.47982 4.5135,-4.28638 7.34041,-6.23683 2.82691,-1.95043 6.38348,-4.2138 7.90349,-5.0297 1.52001,-0.81591 5.41066,-2.63445 8.64589,-4.04119 3.23522,-1.40674 7.90195,-3.96664 10.37047,-5.68865 2.46854,-1.72202 5.60967,-3.54561 6.98029,-4.05243 1.90838,-0.70568 3.08986,-0.7748 5.04451,-0.29514 1.40387,0.3445 3.67269,1.59373 5.04178,2.77606 1.36913,1.18233 3.63183,3.76718 5.02825,5.74409 1.39641,1.97692 3.67413,5.06447 5.06157,6.86122 1.38748,1.79675 3.79084,3.9388 5.34083,4.7601 1.55,0.82131 3.83581,1.80406 5.07958,2.18388 1.30718,0.39917 3.22954,1.81947 4.5556,3.36582 1.47493,1.71988 2.5231,3.7649 2.93527,5.72667 0.35261,1.67832 0.55655,3.36252 0.45319,3.74267 -0.10335,0.38018 -0.34166,1.47753 -0.52959,2.43857 -0.18793,0.96103 -1.23536,2.81236 -2.32763,4.11406 -1.09227,1.30168 -3.52154,3.55519 -5.3984,5.00776 -1.87685,1.45259 -5.2832,3.34894 -7.56962,4.21418 -3.33636,1.26255 -5.41412,1.59313 -10.5235,1.67441 z m -59.39803,-33.26025 c -2.06339,0.19227 -4.35368,0.10411 -5.08951,-0.19579 -0.73584,-0.29995 -2.09594,-1.40636 -3.02243,-2.45867 -0.92649,-1.05231 -2.18284,-3.30833 -2.79187,-5.01338 -0.92024,-2.57624 -1.01011,-3.84201 -0.53189,-7.49098 0.3165,-2.415 1.32789,-5.97612 2.24752,-7.91359 0.96472,-2.03252 2.56833,-4.15633 3.79082,-5.02059 1.16534,-0.823857 2.98013,-1.517207 4.03285,-1.540787 1.39688,-0.0313 2.56726,0.61369 4.3315,2.387027 1.34873,1.35568 3.34704,4.52915 4.52022,7.1784 1.47529,3.33157 2.12579,5.77653 2.17992,8.19363 0.0529,2.36324 -0.36102,4.32062 -1.31815,6.23299 -0.7674,1.53333 -2.11575,3.35133 -2.99633,4.04001 -1.00662,0.78726 -2.99388,1.38193 -5.35267,1.60173 z m 88.65428,-4.95647 c -0.44955,-0.02 -1.64135,-0.26339 -2.64845,-0.54077 -1.0071,-0.27738 -2.42433,-1.00913 -3.14942,-1.62609 -0.72506,-0.61698 -1.72908,-2.03478 -2.23115,-3.15067 -0.50206,-1.1159 -0.94113,-3.29214 -0.97571,-4.83612 -0.0457,-2.0423 0.64175,-4.27583 2.52308,-8.19696 1.81002,-3.77253 3.24265,-5.846287 4.77453,-6.911247 2.16751,-1.50686 2.18569,-1.56061 1.8883,-5.58436 -0.16516,-2.23457 -0.11045,-4.38608 0.12172,-4.78114 0.28827,-0.49066 0.83425,-0.36166 1.7229,0.40707 0.7155,0.61894 1.71858,1.89056 2.22909,2.82582 0.51051,0.93524 0.94421,2.41655 0.96381,3.2918 0.0196,0.87523 -0.45923,1.88854 -1.06407,2.25178 -0.99384,0.59686 -0.90294,0.83385 0.94424,2.4616 1.12419,0.990637 2.53929,2.708597 3.14467,3.817687 0.60535,1.1091 1.29625,3.4014 1.53526,5.09404 0.28749,2.03583 0.10977,4.10574 -0.52511,6.11524 -0.52783,1.67072 -1.69528,4.04826 -2.59435,5.28338 -0.89905,1.23513 -2.5813,2.66637 -3.73831,3.18053 -1.15702,0.51416 -2.47149,0.91844 -2.92103,0.89841 z m -68.78362,-14.32677 c -1.32412,0.0294 -3.62673,-0.51647 -5.11692,-1.21301 -2.30064,-1.07535 -2.92658,-1.80593 -4.14855,-4.84227 -1.20281,-2.98867 -1.41798,-4.569777 -1.31036,-9.628907 0.0977,-4.59145 0.46101,-6.78384 1.50473,-9.0794 1.06903,-2.35122 2.01772,-3.35493 4.25279,-4.49938 2.5983,-1.33043 3.16159,-1.40416 5.8177,-0.76155 1.77779,0.43012 3.88941,1.59363 5.33923,2.94195 1.31909,1.22674 2.75581,3.04154 3.1927,4.03288 0.43687,0.99135 1.04599,1.79684 1.35363,1.78994 0.30764,-0.007 0.52696,-1.4575 0.48742,-3.22357 -0.0396,-1.76607 0.36086,-5.11326 0.88981,-7.43821 0.75268,-3.30818 1.52531,-4.84233 3.55395,-7.05676 2.19776,-2.39899 2.97207,-2.83773 5.08842,-2.88311 1.37292,-0.0294 3.40623,0.47381 4.5185,1.1183 1.11225,0.64451 2.78444,2.126 3.71599,3.2922 0.93153,1.16621 2.18048,3.2158 2.77545,4.55463 0.59494,1.33885 1.39505,4.13608 1.77799,6.21607 0.38294,2.07999 0.53387,5.05911 0.3354,6.62024 -0.19942,1.56844 -1.22955,4.16145 -2.30236,5.79532 -1.06782,1.62628 -2.92003,3.51023 -4.11603,4.18656 -1.19599,0.67633 -3.43419,1.257907 -4.97377,1.292387 -1.65749,0.0371 -3.62388,-0.42178 -4.821,-1.125087 -1.11196,-0.65329 -2.69026,-2.05088 -3.50733,-3.10576 -0.81707,-1.05489 -1.76344,-1.91174 -2.10306,-1.90414 -0.33962,0.008 -0.58836,1.31423 -0.55276,2.90363 0.0356,1.58939 -0.45389,3.964697 -1.08773,5.278477 -0.63386,1.31377 -1.68371,2.89118 -2.33304,3.50534 -0.64932,0.61417 -2.22519,1.58088 -3.50194,2.14823 -1.27675,0.56738 -3.40474,1.05562 -4.72886,1.085 z m 49.96406,-2.73722 c -0.46268,0.17092 -1.9961,-0.0706 -3.40765,-0.53662 -1.41152,-0.46606 -3.07763,-1.447 -3.70247,-2.17987 -0.62481,-0.73287 -1.48549,-2.51554 -1.91263,-3.961477 -0.49487,-1.67529 -0.75956,-6.44134 -0.72963,-13.13826 0.0436,-9.76046 0.1594,-10.74157 1.62506,-13.76896 0.86795,-1.79281 2.01805,-3.64175 2.55579,-4.10875 0.61557,-0.53461 1.63267,-0.7002 2.74614,-0.4471 0.97266,0.2211 2.94112,1.57229 4.37435,3.00264 1.43323,1.43038 4.10221,5.43105 5.93105,8.89041 3.11738,5.89667 3.33057,6.58813 3.41122,11.06429 0.0652,3.62325 -0.22919,5.40635 -1.2212,7.39471 -0.71897,1.441097 -2.45095,3.700947 -3.84883,5.021887 -1.39789,1.32095 -3.09026,2.41401 -3.76081,2.42903 -0.67056,0.015 -1.59774,0.16715 -2.06039,0.33806 z m -79.01744,-9.348807 c -0.62234,0.0139 -1.68991,-0.56454 -2.37234,-1.28549 -0.94057,-0.99365 -1.3166,-2.48778 -1.554,-6.17461 -0.2778,-4.31409 -0.11883,-5.2608 1.40276,-8.37675 0.94378,-1.93215 2.06623,-3.62725 2.49433,-3.7669 0.59026,-0.19254 0.80031,1.65739 0.86919,7.65559 0.05,4.35021 0.30424,8.23811 0.56508,8.63975 0.26122,0.4014 0.306,1.30464 0.10036,2.00666 -0.20563,0.70202 -0.88306,1.28781 -1.5054,1.30175 z m 17.99671,-29.0619 c -0.87079,0.0195 -1.91733,-0.60566 -2.54728,-1.52167 -0.97111,-1.41215 -0.98586,-1.81867 -0.16055,-4.43123 0.49981,-1.58205 1.77369,-4.19592 2.83083,-5.80861 1.05714,-1.61267 2.19475,-2.93824 2.52803,-2.94571 0.33328,-0.007 0.62934,0.20085 0.65792,0.46291 0.0286,0.26207 0.14357,2.9712 0.25542,6.0203 0.16762,4.56809 0.002,5.77676 -0.94148,6.86736 -0.62973,0.72795 -1.81006,1.33845 -2.62297,1.35665 z m 54.40835,-3.25621 c -0.90285,0.1255 -1.93898,-0.13788 -2.3025,-0.58529 -0.36349,-0.44742 -0.86054,-1.33322 -1.10365,-1.96904 -0.24351,-0.63556 -0.2938,-2.72532 -0.11201,-4.6439 0.25886,-2.72826 0.55479,-3.4523 1.35808,-3.32297 0.56491,0.0909 1.71009,1.43972 2.54481,2.99726 0.93198,1.73888 1.46736,3.69333 1.38715,5.06383 -0.10934,1.86885 -0.39764,2.26906 -1.77215,2.46012 z m -27.78621,-4.47385 c -1.26827,0.15311 -2.31473,-0.16937 -3.04165,-0.93732 -0.60951,-0.64391 -1.12304,-2.00761 -1.14119,-3.03045 -0.0179,-1.02284 0.44276,-3.5892 1.02424,-5.70305 0.65014,-2.36339 1.44555,-3.92719 2.06565,-4.06107 0.75165,-0.16229 1.47043,1.07247 2.82293,4.84935 1.60683,4.48711 1.72231,5.27207 1.00901,6.85809 -0.57848,1.28623 -1.35043,1.85681 -2.73898,2.02445 z"
       style="color:#000000;fill:#00680b;fill-opacity:0.5;fill-rule:nonzero;stroke:#006500;stroke-width:1.04912793999999998;stroke-linecap:butt;stroke-linejoin:miter;stroke-miterlimit:4;stroke-opacity:1;stroke-dasharray:none;stroke-dashoffset:0;marker:none;visibility:visible;display:inline;overflow:visible;filter:url(#filter3820-0-9);enable-background:accumulate" />
    <path
       id="path3066-9"
       d="m 273.33877,206.4089 c -1.78319,-2.03319 -3.44574,-5.33079 -3.69459,-7.32795 -0.24881,-1.99717 0.43862,-4.96956 1.52769,-6.6053 1.08907,-1.63573 5.01288,-4.26391 8.71967,-5.84035 3.70675,-1.57643 9.90672,-4.23585 13.77767,-5.90982 5.41255,-2.34063 8.03044,-2.63012 11.33466,-1.25337 2.44087,1.017 5.35933,3.35078 6.75719,5.40341 1.35333,1.98724 2.21387,3.98958 1.9123,4.44964 -0.30157,0.46006 -0.0105,3.86231 0.64683,7.56057 0.65733,3.69825 0.47918,8.9643 -0.39588,11.70232 -0.87505,2.73805 -2.18921,5.89701 -2.92031,7.01995 -0.73125,1.12286 -3.0062,2.98699 -5.0557,4.14233 -2.68165,1.5117 -5.31792,1.55267 -9.40316,0.14611 -3.12224,-1.07497 -8.89146,-3.71767 -12.82052,-5.87265 -3.92902,-2.15499 -8.60262,-5.58175 -10.38585,-7.61489 z m 44.63401,6.48364 c -0.25743,-1.23707 0.32202,-3.45453 1.28768,-4.92769 0.96567,-1.47317 3.05838,-3.41563 4.65049,-4.31658 1.59211,-0.90096 4.69027,-2.10005 6.88484,-2.66462 2.80119,-0.72065 5.27292,-0.18561 8.29541,1.79563 3.27746,2.14838 4.30515,3.73598 4.30458,6.64986 -5.4e-4,2.76647 -0.7849,4.39616 -2.82902,5.87795 -1.55558,1.12763 -5.43864,2.68682 -8.62904,3.46487 -4.3338,1.05689 -6.77389,0.77675 -9.64883,-1.10779 -2.11643,-1.38732 -4.05869,-3.53456 -4.31611,-4.77163 z M 270.53629,171.5242 c -0.20791,-2.40378 0.2812,-6.10079 1.08698,-8.21557 1.01,-2.65087 2.87222,-4.54864 5.99592,-6.11038 3.08533,-1.54254 5.61554,-1.72216 7.93038,-0.56295 2.04418,1.02366 3.76927,3.12093 4.327,5.26055 0.51016,1.95699 0.73699,5.40194 0.5041,7.65541 -0.23291,2.25348 -0.91537,4.84767 -1.51662,5.76488 -0.60122,0.9172 -3.43966,2.37059 -6.30767,3.22975 -3.5676,1.06871 -6.22954,0.89673 -8.42828,-0.54454 -2.09531,-1.37347 -3.34535,-3.62767 -3.59181,-6.47715 z m 53.2149,12.26982 c -0.16474,-1.45832 0.95926,-4.57185 2.49779,-6.91896 1.53852,-2.34709 4.70018,-5.34012 7.02587,-6.65116 2.32573,-1.31104 6.01578,-2.69013 8.20019,-3.06462 2.18439,-0.37449 5.30211,0.19123 6.92827,1.25718 1.62617,1.06595 3.16728,2.95024 3.42469,4.1873 0.25742,1.23707 -0.98998,4.47351 -2.77201,7.19208 -1.78203,2.71858 -4.54126,5.68095 -6.13163,6.58304 -1.59039,0.9021 -5.11678,2.18467 -7.83648,2.85015 -3.02633,0.74053 -6.12675,0.43527 -7.99101,-0.78675 -1.67538,-1.09822 -3.18094,-3.18991 -3.34568,-4.64826 z M 304.39193,167.0253 c -1.03881,-1.49087 -1.52518,-4.36035 -1.08083,-6.37661 0.44434,-2.01627 2.289,-5.92548 4.09927,-8.68713 2.30184,-3.51156 4.41839,-5.25569 7.04009,-5.80124 2.06178,-0.42904 4.92246,-0.0107 6.35708,0.92973 1.46412,0.95974 3.12221,4.38818 3.77972,7.81538 0.96708,5.04088 0.58533,6.99957 -2.18919,11.23224 -2.55315,3.89494 -4.37779,5.30543 -7.5946,5.87073 -2.32876,0.40923 -5.19906,0.0653 -6.37847,-0.76418 -1.17937,-0.82958 -2.99428,-2.72805 -4.03307,-4.21892 z"
       style="color:#000000;fill:#00680b;fill-opacity:0.5;fill-rule:nonzero;stroke:#006500;stroke-width:1.04912793999999998;stroke-linecap:butt;stroke-linejoin:miter;stroke-miterlimit:4;stroke-opacity:1;stroke-dasharray:none;stroke-dashoffset:0;marker:none;visibility:visible;display:inline;overflow:visible;filter:url(#filter3820-0-8-1);enable-background:accumulate" />
    <path
       id="path3226-4"
       d="m 203.26818,346.73018 c -2.07726,-1.13024 -4.43195,-2.63289 -5.23266,-3.33921 -0.80068,-0.70633 -2.32982,-1.79427 -3.39809,-2.41767 -1.06827,-0.6234 -2.30302,-1.171 -2.74388,-1.21691 -0.44087,-0.0459 -1.51554,-0.63452 -2.38816,-1.30804 l -1.58657,-1.22456 -1.11467,1.01225 c -0.61307,0.55674 -2.15964,1.33987 -3.4368,1.7403 -1.39454,0.43723 -4.40357,0.65521 -7.53284,0.54567 -4.06691,-0.14235 -5.836,-0.43698 -8.05922,-1.34218 -1.56667,-0.6379 -4.80966,-2.76129 -7.20664,-4.71866 -2.39698,-1.95736 -4.92052,-4.38839 -5.60785,-5.40227 -0.68733,-1.01388 -1.54529,-3.08391 -1.9066,-4.60007 -0.38988,-1.63607 -1.20153,-3.23902 -1.99667,-3.94327 -0.98742,-0.87456 -1.29315,-1.63401 -1.16259,-2.88789 0.0974,-0.9357 -0.0397,-1.9685 -0.30468,-2.29511 -0.265,-0.32662 -0.55042,-1.66133 -0.63428,-2.96605 -0.13275,-2.06562 -0.33601,-2.4131 -1.57282,-2.68867 -0.78865,-0.17572 -1.7686,-0.94119 -2.20333,-1.72113 -0.43064,-0.77256 -1.4713,-2.46911 -2.31261,-3.77009 -1.39595,-2.15869 -1.44592,-2.4142 -0.5717,-2.92363 0.66253,-0.38607 1.34172,-0.36467 2.20244,0.0694 0.68448,0.34517 1.71362,0.67644 2.28697,0.73614 0.57335,0.0597 1.68444,-0.41235 2.46909,-1.04899 1.09244,-0.88639 1.48446,-1.71302 1.67355,-3.52897 0.19873,-1.90853 0.55563,-2.60316 1.82841,-3.55856 0.8698,-0.65293 1.72723,-1.17196 1.90539,-1.15341 0.17814,0.0186 1.42569,-1.22838 2.77232,-2.77095 1.34663,-1.54257 3.18777,-3.36901 4.09147,-4.05873 0.90367,-0.68974 2.92529,-1.73634 4.49247,-2.32579 1.56718,-0.58945 3.15739,-1.03966 3.53377,-1.00047 0.3764,0.0392 1.24774,0.736 1.93632,1.54845 0.76429,0.90179 1.59374,1.38529 2.1294,1.24127 0.4826,-0.12975 1.35439,-0.82115 1.93732,-1.53643 0.58292,-0.71529 1.33083,-2.11387 1.66201,-3.10795 0.33117,-0.99408 0.82272,-2.42955 1.09231,-3.18993 0.44071,-1.24303 0.23636,-1.57761 -2.02538,-3.31617 -1.38354,-1.06351 -2.48776,-2.20048 -2.4538,-2.52658 0.034,-0.32612 -0.82567,-1.70784 -1.91029,-3.07049 l -1.97202,-2.47756 1.28111,-1.10754 c 0.70462,-0.60914 1.31968,-1.4778 1.3668,-1.93035 0.0471,-0.45254 -0.23894,-1.15471 -0.63568,-1.56035 -0.39676,-0.40564 -0.65267,-1.35954 -0.56869,-2.11978 0.0842,-0.76021 0.78498,-2.26966 1.55778,-3.35428 0.77281,-1.08461 2.00947,-2.19864 2.74813,-2.47561 0.73867,-0.27698 1.79392,-1.24916 2.345,-2.16042 0.65936,-1.09029 1.44932,-1.67327 2.31026,-1.7049 0.71954,-0.0264 2.601,0.49506 4.181,1.15891 l 2.87275,1.20698 2.72852,-1.11065 c 2.53387,-1.03141 3.04524,-1.05374 7.16841,-0.31313 4.08698,0.73411 4.52882,0.71716 5.55879,-0.21327 0.68767,-0.6212 1.75466,-0.94456 2.76843,-0.839 0.90723,0.0945 2.42452,0.68884 3.37174,1.32082 0.94721,0.63199 2.90395,2.08234 4.3483,3.22301 2.20709,1.74303 3.25987,2.1861 6.59829,2.77696 l 3.97219,0.70303 2.67036,4.00283 c 1.4687,2.20156 3.56407,6.1312 4.65639,8.73256 1.09231,2.60135 2.42483,5.33694 2.96117,6.07908 0.53634,0.74213 1.58016,1.74877 2.31961,2.23694 0.73945,0.48819 2.17984,0.9746 3.20087,1.08091 1.35215,0.1408 2.02652,0.53623 2.48263,1.45576 0.34442,0.69435 0.74409,2.98895 0.88815,5.09911 0.14939,2.1882 -0.0615,5.83178 -0.49083,8.48018 -0.4807,2.96534 -1.15993,5.26785 -1.87942,6.37105 -0.61968,0.95014 -1.62578,2.24662 -2.23578,2.88105 -0.61,0.63443 -1.16396,1.68044 -1.23102,2.32444 -0.0671,0.644 -0.97124,2.42863 -2.00929,3.96583 -1.03805,1.53721 -1.96003,3.49284 -2.04885,4.34583 -0.0888,0.853 -1.08731,2.96846 -2.21887,4.70102 -1.13155,1.73257 -2.47275,4.02966 -2.98044,5.10464 -0.60855,1.28856 -0.90321,2.92068 -0.8648,4.79008 0.0396,1.92881 -0.29049,3.67807 -1.03224,5.47028 -0.59978,1.44909 -1.71893,3.4466 -2.48702,4.43888 -0.76808,0.99228 -1.81772,2.38408 -2.33254,3.09287 -0.5148,0.70879 -1.57699,2.08703 -2.36041,3.06273 -0.78341,0.9757 -2.26561,2.18017 -3.29377,2.6766 -1.16849,0.56418 -3.12917,0.86552 -5.22934,0.8037 -2.89628,-0.0852 -3.88114,-0.38252 -7.13679,-2.15388 z m -8.45851,-21.62783 c 0.77702,-0.79694 2.26,-3.15548 3.29551,-5.2412 1.03552,-2.08572 2.97455,-4.96312 4.30895,-6.39423 1.33442,-1.43109 3.83754,-3.58511 5.5625,-4.78669 2.02058,-1.40751 3.61668,-3.0435 4.48667,-4.5988 0.74272,-1.32775 1.44984,-3.36908 1.57138,-4.53629 0.19466,-1.86942 -0.13629,-2.61278 -2.7784,-6.24092 -1.78103,-2.44567 -3.18736,-5.02709 -3.46213,-6.35496 -0.32666,-1.57858 -0.84934,-2.41811 -1.77732,-2.85466 -0.72302,-0.34014 -2.40282,-0.56932 -3.73291,-0.50929 -1.33009,0.06 -2.88291,0.37984 -3.45072,0.71071 -0.94297,0.5495 -1.00161,0.86461 -0.67723,3.63859 0.19531,1.67034 0.85993,3.78162 1.47691,4.69172 0.67424,0.9946 0.9552,1.98255 0.70421,2.47644 -0.22967,0.45194 -0.84542,0.9964 -1.36835,1.20991 -0.65941,0.26925 -1.3974,0.0486 -2.40818,-0.72001 -0.80157,-0.60953 -2.57258,-1.39608 -3.93558,-1.7479 -1.90109,-0.4907 -2.80777,-0.46964 -3.89342,0.0905 -0.77839,0.40156 -1.84289,1.5138 -2.36557,2.47161 -0.76096,1.39448 -0.87781,2.19581 -0.5864,4.02141 0.20016,1.25394 0.60285,3.33556 0.89486,4.62582 0.29203,1.29025 1.07016,3.52632 1.7292,4.96904 0.65903,1.44272 1.47383,3.83186 1.81065,5.30921 0.33683,1.47734 0.47429,4.01246 0.30548,5.63359 -0.18907,1.81577 -0.039,3.42949 0.39071,4.20277 0.3837,0.69039 1.10011,1.28392 1.59202,1.31895 0.49192,0.035 1.53013,-0.58834 2.30716,-1.38527 z m -71.30873,-53.37699 c -1.10891,-0.83217 -2.53837,-2.47532 -3.17657,-3.65143 -0.6382,-1.1761 -1.82356,-4.22169 -2.63415,-6.76797 -1.16903,-3.67234 -1.37018,-5.05829 -0.97275,-6.70297 0.33028,-1.36695 1.10023,-2.55962 2.25979,-3.50046 1.4782,-1.19939 2.24881,-1.40547 4.82992,-1.29163 2.16076,0.0953 3.6252,0.4738 4.94045,1.27681 1.02815,0.62774 3.05056,2.34187 4.49427,3.80917 1.87254,1.90316 2.79047,3.36042 3.20257,5.08423 0.3177,1.32902 0.50805,3.08485 0.42298,3.90184 -0.0851,0.81698 -0.67778,1.90985 -1.31711,2.42861 -0.63934,0.51874 -1.61645,0.89589 -2.17138,0.83811 -0.55492,-0.0578 -1.14148,0.18045 -1.3035,0.52941 -0.16199,0.34896 -0.18151,1.28827 -0.0433,2.08737 0.154,0.89035 -0.0176,1.73883 -0.44311,2.19136 -0.38193,0.40616 -1.38702,0.91658 -2.23356,1.13427 -0.84653,0.21768 -2.05649,0.33966 -2.68877,0.27105 -0.63226,-0.0688 -2.05691,-0.8056 -3.16582,-1.63777 z m 120.64947,-2.88489 c -0.61459,-0.81919 -1.20061,-2.07055 -1.30225,-2.78082 -0.10166,-0.71027 0.10997,-1.87594 0.47025,-2.59038 0.36029,-0.71445 1.02386,-1.26059 1.47461,-1.21366 0.45075,0.0469 1.57761,0.49902 2.50415,1.00462 0.92653,0.50561 1.81075,1.18052 1.9649,1.49981 0.15416,0.31927 -0.20883,1.51014 -0.8067,2.64636 -0.59784,1.13622 -1.55961,2.25882 -2.13725,2.49468 -0.83889,0.34252 -1.27519,0.12904 -2.1677,-1.06061 z m -66.90798,-24.05589 c -0.79819,-0.69271 -1.7249,-0.94337 -3.19052,-0.86295 l -2.06561,0.11333 0.0699,-2.24313 c 0.0519,-1.66575 -0.20555,-2.41733 -1.00016,-2.91988 -0.58851,-0.37221 -1.41772,-1.03223 -1.84268,-1.46672 -0.42497,-0.43449 -0.71603,-1.33379 -0.64682,-1.99847 0.0692,-0.66467 0.30864,-1.56822 0.53205,-2.00788 0.22343,-0.43967 0.65834,-0.77314 0.96647,-0.74105 0.30813,0.0321 0.96181,0.50574 1.45264,1.05257 0.84479,0.94118 0.91494,0.93429 1.31465,-0.12916 0.27945,-0.7435 0.79983,-1.06279 1.53878,-0.94418 0.61408,0.0986 1.73357,0.39472 2.48773,0.65812 0.93243,0.32567 1.95088,1.58236 3.1828,3.9273 1.24325,2.36656 1.74832,4.00502 1.60991,5.22267 -0.11066,0.97589 -0.55952,2.15607 -0.99689,2.62268 -0.43737,0.46662 -1.13093,0.81344 -1.54126,0.77071 -0.41032,-0.0427 -1.25226,-0.51701 -1.87098,-1.05396 z m 44.81508,4.19538 c -0.78482,-0.81338 -1.9375,-1.53203 -2.5615,-1.597 -0.624,-0.065 -1.792,-0.54983 -2.59556,-1.07744 -0.80355,-0.52762 -1.77342,-1.7565 -2.15525,-2.73085 -0.61756,-1.57583 -0.55707,-2.41449 0.5474,-7.59146 0.92505,-4.33588 1.29911,-7.76227 1.46695,-13.43715 0.12392,-4.18947 0.32996,-9.52192 0.45787,-11.84989 0.12791,-2.32796 0.12219,-5.68085 -0.0127,-7.45086 -0.17232,-2.26106 0.0376,-4.37564 0.70606,-7.10995 0.5232,-2.14048 1.40812,-4.83254 1.96649,-5.98236 0.55837,-1.14982 1.49215,-2.43966 2.07509,-2.8663 0.58294,-0.42664 1.9411,-0.8261 3.01816,-0.88769 1.31887,-0.0754 2.61072,0.26783 3.95638,1.05173 1.09894,0.64004 2.36285,1.9417 2.80868,2.89257 0.44582,0.95086 0.99495,2.61413 1.22028,3.69613 0.22533,1.08199 0.42432,3.81333 0.44221,6.06961 0.0241,3.04383 -0.25758,4.98929 -1.09172,7.53969 -0.67966,2.07802 -1.1101,4.54386 -1.08848,6.23544 0.0197,1.53896 -0.41561,5.50442 -0.96727,8.81212 -0.68593,4.11265 -1.20215,5.99328 -1.63287,5.94843 -0.34639,-0.0361 -0.73185,-1.19576 -0.85656,-2.57708 -0.1247,-1.38133 -0.49338,-2.63014 -0.81927,-2.77515 -0.32589,-0.14501 -0.76885,0.1502 -0.98433,0.65603 -0.2155,0.50583 -0.60893,2.57323 -0.87431,4.59421 -0.38924,2.96471 -0.70293,3.81847 -1.62371,4.41961 -1.13776,0.74281 -1.1382,0.7505 -0.14073,2.51287 0.55028,0.97228 1.32572,1.80165 1.7232,1.84304 0.39748,0.0414 0.89375,-0.14639 1.10283,-0.41727 0.20908,-0.2709 0.80965,-0.44781 1.3346,-0.39314 0.70083,0.073 0.9846,0.6487 1.06788,2.16649 0.0624,1.13692 -0.27713,3.74517 -0.75446,5.79612 -0.47732,2.05097 -1.3103,4.27191 -1.85104,4.93544 -0.54075,0.66353 -1.31488,1.17188 -1.72026,1.12967 -0.4054,-0.0422 -1.37921,-0.74225 -2.16404,-1.55561 z m 1.97079,-5.68904 0.30379,-1.52366 -1.19102,1.12866 c -0.65506,0.62076 -1.07552,1.36783 -0.93439,1.66015 0.14114,0.29232 0.54038,0.47008 0.8872,0.39501 0.34683,-0.0751 0.7673,-0.82214 0.93442,-1.66016 z m -2.28822,-13.60242 c 0.17814,-0.70998 -0.0849,-1.37521 -0.71153,-1.79945 -0.69902,-0.47327 -1.11369,-0.51817 -1.39689,-0.15149 -0.22152,0.28702 -0.31548,1.13186 -0.20876,1.87744 0.12878,0.89987 0.50339,1.32937 1.1143,1.27759 0.50617,-0.0429 1.04748,-0.58486 1.20291,-1.20436 z m 2.61546,-20.2112 c -0.0788,-0.35574 -0.41481,-0.76985 -0.74668,-0.92025 -0.33187,-0.15041 -0.64245,0.10159 -0.69019,0.56001 -0.0477,0.45841 0.28828,0.87251 0.74668,0.92025 0.45841,0.0477 0.769,-0.20427 0.69019,-0.56001 z m 29.44107,39.36979 c -1.06905,-1.31756 -2.13951,-2.22651 -2.3788,-2.01989 -0.2393,0.20664 -0.56458,0.82127 -0.72286,1.36585 -0.15827,0.5446 -0.59415,1.05793 -0.9686,1.14074 -0.44771,0.099 -0.62219,-0.41233 -0.50962,-1.49347 0.0942,-0.90423 0.78836,-2.58791 1.54268,-3.74151 1.20686,-1.84566 1.43482,-2.83826 1.89914,-8.26858 0.45425,-5.31257 0.72386,-6.52195 1.9382,-8.69277 1.16299,-2.0791 1.93643,-2.75024 4.40702,-3.8242 1.64809,-0.71641 3.32918,-1.26792 3.73577,-1.22558 0.40659,0.0423 1.21293,0.54972 1.79186,1.12752 0.88658,0.88481 1.02291,1.75935 0.86427,5.54411 -0.1036,2.47147 -0.27989,5.3784 -0.39177,6.45982 -0.11307,1.09091 -0.77026,2.68064 -1.47672,3.57101 -0.70027,0.88262 -1.75781,2.33252 -2.35006,3.22199 -0.59226,0.88948 -1.43223,1.58023 -1.8666,1.535 -0.43439,-0.0452 -1.3024,-0.67439 -1.92894,-1.39811 l -1.13915,-1.31587 -1.49035,1.40562 c -1.43372,1.35219 -1.45603,1.43708 -0.58702,2.23338 0.49685,0.45527 1.53569,1.02733 2.30854,1.27123 0.77285,0.24391 1.64578,0.80359 1.93984,1.24376 0.369,0.55232 0.32912,1.31032 -0.12865,2.44634 -0.36738,0.91173 -1.08289,1.68243 -1.60387,1.72762 -0.5508,0.0478 -1.74612,-0.91121 -2.88432,-2.31401 z m -60.37225,-8.70186 c -0.42612,-0.52516 -0.71486,-1.53013 -0.64163,-2.23326 0.097,-0.93199 0.42145,-1.24837 1.1972,-1.1676 0.62833,0.0654 1.25632,0.68363 1.5335,1.50961 0.38013,1.13275 0.29977,1.53644 -0.42246,2.12245 -0.80168,0.65048 -0.97021,0.6271 -1.66661,-0.23115 z m 8.20214,-2.69341 c -0.0961,-0.40018 -0.35593,-1.44496 -0.57732,-2.32174 -0.39611,-1.5687 -0.41651,-1.57805 -1.27718,-0.58634 -0.74415,0.85748 -1.15619,0.91276 -2.76228,0.37055 -1.03821,-0.3505 -2.42496,-1.29946 -3.08166,-2.10881 -1.15321,-1.42131 -1.15816,-1.5037 -0.14473,-2.41334 0.91253,-0.81908 0.99245,-1.20184 0.61337,-2.93764 -0.36445,-1.66872 -0.29291,-2.11184 0.43648,-2.70365 0.61193,-0.49652 1.35519,-0.54784 2.48974,-0.17192 0.88956,0.29475 1.93139,1.14458 2.31518,1.88849 0.38379,0.74393 0.52356,1.69548 0.31059,2.11455 -0.21295,0.41907 -0.28785,1.13148 -0.16685,1.58307 0.12143,0.45163 0.43231,0.84317 0.69086,0.8701 0.25854,0.0269 0.57055,-0.91595 0.69335,-2.09526 0.18116,-1.73977 0.38968,-2.09382 1.1055,-1.87709 0.5349,0.16196 0.9545,1.00242 1.06581,2.13485 0.10098,1.02726 0.10283,3.40052 0.004,5.27392 -0.1256,2.38351 -0.38382,3.45146 -0.86004,3.55698 -0.37432,0.083 -0.75922,-0.17658 -0.85535,-0.57676 z m -26.0068,-11.15717 c -0.18358,-0.38021 -0.94729,-0.58815 -1.84908,-0.50345 -1.17615,0.11045 -1.64121,-0.11248 -1.98359,-0.95111 -0.30948,-0.75795 -0.99471,-1.1524 -2.22435,-1.28044 -1.33238,-0.13874 -2.07151,-0.61932 -2.95353,-1.92039 -0.64702,-0.95444 -1.32319,-2.61323 -1.50256,-3.68618 -0.17938,-1.07296 0.008,-3.88549 0.4169,-6.2501 0.56787,-3.28574 0.59111,-4.68695 0.0986,-5.94372 -0.35444,-0.90445 -0.99914,-2.0071 -1.43267,-2.45033 -0.43351,-0.44324 -1.1465,-1.73518 -1.58441,-2.87097 -0.43792,-1.1358 -0.84971,-3.04042 -0.91511,-4.23249 -0.0654,-1.19207 0.32693,-3.66019 0.87191,-5.48472 0.54495,-1.82453 1.50936,-3.99924 2.14312,-4.83267 0.63376,-0.83345 2.20393,-1.9208 3.48925,-2.41637 1.77261,-0.68343 2.95342,-0.77636 4.88959,-0.38479 1.40392,0.28393 3.1236,1.04296 3.82148,1.68674 0.69791,0.64377 1.63642,1.79259 2.08558,2.55293 0.44917,0.76034 0.90673,2.52173 1.01682,3.91419 0.11482,1.45266 -0.22801,4.69463 -0.8044,7.60625 -0.66082,3.33835 -1.38546,5.55716 -2.11802,6.48524 l -1.11351,1.41072 1.92395,6.14877 c 1.13332,3.62199 1.83439,6.90478 1.70601,7.98847 -0.11984,1.01183 -0.60136,2.75566 -1.06999,3.87517 -0.47359,1.13135 -1.2401,2.06914 -1.72567,2.11123 -0.48047,0.0417 -1.01434,-0.21572 -1.18636,-0.57198 z m 19.45646,-9.59257 c -0.36248,-0.28638 -0.88802,-1.11565 -1.1679,-1.84282 -0.29511,-0.76675 -0.89337,-1.29578 -1.4242,-1.25943 -0.50341,0.0344 -0.99188,-0.25584 -1.08548,-0.64514 -0.0936,-0.38931 -0.11299,-3.56656 -0.0431,-7.06057 0.0892,-4.4607 0.35485,-6.89942 0.89194,-8.18829 0.65048,-1.5609 0.63153,-2.1617 -0.12669,-4.01547 -0.49039,-1.19897 -0.849,-2.58922 -0.79691,-3.08945 0.0521,-0.50023 -0.25391,-2.16079 -0.67997,-3.69012 -0.42608,-1.52934 -0.67789,-3.65961 -0.55959,-4.73393 0.11789,-1.07437 0.74961,-2.86536 1.40294,-3.98008 0.65331,-1.11472 2.05374,-2.61376 3.11203,-3.3312 1.7845,-1.20974 2.16686,-1.25932 5.26674,-0.68289 2.62251,0.48767 3.58931,0.9257 4.48811,2.03341 0.82893,1.02163 1.18333,2.36091 1.28226,4.84555 0.0752,1.88852 -0.0212,4.97367 -0.21414,6.85587 -0.26203,2.55503 -0.75951,4.10482 -1.96368,6.11626 -1.57453,2.63008 -1.65571,2.68246 -3.41708,2.20516 -0.99234,-0.26891 -1.81756,-0.32578 -1.83385,-0.1264 -0.0167,0.19934 0.11811,0.65859 0.29864,1.02044 0.18052,0.36185 1.30023,1.60643 2.48822,2.76576 1.86119,1.81627 2.24732,2.61667 2.79143,5.7862 0.34731,2.0231 0.52711,4.86473 0.39957,6.31475 -0.12756,1.45002 -0.47462,3.26962 -0.77131,4.04354 -0.29667,0.77393 -0.75486,1.38471 -1.01818,1.35729 -0.26333,-0.0274 -0.7971,-0.44218 -1.18616,-0.92169 -0.38906,-0.4795 -0.86461,-0.88819 -1.05676,-0.9082 -0.19215,-0.02 -1.00099,0.37467 -1.79742,0.87705 -0.79642,0.5024 -1.71182,0.88232 -2.03423,0.84426 -0.32244,-0.0376 -0.88273,-0.3035 -1.24521,-0.58989 z"
       style="color:#000000;fill:#00680b;fill-opacity:0.5;fill-rule:nonzero;stroke:#006500;stroke-width:1.04912793999999998;stroke-linecap:butt;stroke-linejoin:miter;stroke-miterlimit:4;stroke-opacity:1;stroke-dasharray:none;stroke-dashoffset:0;marker:none;visibility:visible;display:inline;overflow:visible;filter:url(#filter3820-0-8-3-9);enable-background:accumulate" />
    <path
       id="path3146-2"
       d="m 96.534901,232.97067 c -0.804547,0.46058 -2.849304,0.83836 -4.543915,0.83953 -1.694611,0.001 -4.087513,-0.73055 -5.317565,-1.62606 -1.230052,-0.8955 -2.729666,-2.50962 -3.332511,-3.5869 -0.602831,-1.07732 -0.887676,-4.98525 -0.63298,-8.68431 0.254675,-3.69908 0.04386,-8.16002 -0.468491,-9.91321 -0.512343,-1.75318 -0.765674,-4.94315 -0.562957,-7.0888 0.322036,-3.40862 0.800807,-4.30877 3.791993,-7.12942 2.117024,-1.99633 4.253541,-3.34951 5.598777,-3.54602 1.196454,-0.17477 4.706417,0.44311 7.799928,1.37306 3.09348,0.92997 8.63936,1.69206 12.32417,1.69352 6.00602,0.002 6.93189,0.24918 8.94273,2.38134 1.4042,1.4891 2.44797,3.61654 2.79105,5.6887 l 0.548,3.31005 -6.18657,6.53527 c -3.40262,3.59438 -9.1346,9.32087 -12.73772,12.72554 -3.60323,3.40458 -7.20942,6.56715 -8.013967,7.02773 z m 9.882949,-44.21715 c -0.854,0.54078 -3.24054,0.82376 -5.30343,0.62888 -2.06288,-0.19489 -4.545558,-0.86253 -5.517062,-1.48362 -0.971494,-0.62109 -2.200463,-1.90504 -2.730964,-2.85326 -0.530564,-0.94817 -0.828256,-5.75605 -0.661548,-10.68417 0.166707,-4.92813 0.764542,-9.68408 1.328509,-10.56877 0.579691,-0.90933 2.029099,-1.78703 3.334481,-2.01921 1.269987,-0.22587 3.924564,0.3695 5.899024,1.32306 3.05979,1.47777 3.95901,2.32529 6.08921,5.73915 1.37462,2.20292 2.80643,5.28537 3.18183,6.84986 0.37539,1.5645 0.0609,4.57104 -0.69889,6.68121 -0.75977,2.11018 -1.82846,4.18924 -2.37487,4.62015 -0.5464,0.4309 -1.69222,1.22591 -2.54621,1.76669 z m -39.659973,28.16606 c -1.879989,0.63384 -4.775672,1.05648 -6.434845,0.93919 -2.635626,-0.18632 -3.52486,-0.75367 -7.039501,-4.49118 -3.238073,-3.44333 -4.22346,-5.07265 -5.051451,-8.35187 -0.629478,-2.49308 -0.604476,-4.8953 0.06397,-6.19045 0.697181,-1.35047 1.873842,-2.46338 3.251227,-3.07482 1.187166,-0.52716 3.467583,-0.66333 5.067596,-0.30262 1.600013,0.36072 5.552819,1.87475 8.784001,3.36453 l 5.874901,2.70868 0.839924,3.22134 c 0.461975,1.77177 0.61167,4.32286 0.332588,5.66914 -0.27904,1.34627 -0.903976,3.10206 -1.38872,3.90176 -0.484764,0.79969 -2.419547,1.9726 -4.299546,2.60646 z m 13.826792,-39.59532 c -1.274744,0.33637 -3.91815,-0.0483 -5.874227,-0.85493 -2.595535,-1.07024 -4.769726,-2.76677 -8.046485,-6.27885 -2.469485,-2.64677 -5.144899,-6.22195 -5.945373,-7.94483 -0.800483,-1.72286 -1.474361,-4.25493 -1.497512,-5.62681 -0.03206,-1.90144 0.615234,-3.11417 2.72315,-5.10192 2.258997,-2.13021 3.35383,-2.57767 5.980337,-2.44427 2.003695,0.10171 5.235835,1.3717 8.5781,3.37039 3.65712,2.18699 6.322369,4.38419 8.379195,6.90767 2.279002,2.79613 3.024185,4.4205 3.048833,6.64598 0.01795,1.61997 -0.483754,4.12722 -1.114883,5.57167 -0.631147,1.44448 -1.769846,3.19287 -2.530473,3.88531 -0.760613,0.69249 -2.425917,1.53424 -3.700662,1.87059 z m -18.423921,13.45615 c -1.650225,0.34917 -3.972837,0.38734 -5.161375,0.0848 -1.18854,-0.30252 -3.378919,-1.48638 -4.867527,-2.6308 -1.817679,-1.39742 -3.364101,-3.45295 -4.708768,-6.25889 -1.1012,-2.29797 -2.281875,-6.30445 -2.623705,-8.90332 -0.456558,-3.47102 -0.194097,-5.31232 0.988814,-6.93713 0.885683,-1.21657 2.472327,-2.8567 3.525888,-3.64476 1.361137,-1.0181 2.653461,-1.15076 4.465103,-0.4583 1.797398,0.68705 4.686835,3.22007 9.794454,8.58631 l 7.244906,7.61181 -0.302436,3.57967 c -0.233768,2.76694 -0.875991,4.11958 -2.828696,5.9577 -1.450343,1.36533 -3.804065,2.6484 -5.526666,3.01289 z m 30.294936,-31.65515 c -0.974854,0.53501 -1.550861,0.2867 -2.15887,-0.93072 -0.456086,-0.91325 -0.826051,-2.17027 -0.822143,-2.79338 0.0048,-0.74556 0.67228,-1.01265 1.952389,-0.78115 1.069906,0.19349 2.402855,0.83703 2.962125,1.43012 0.559268,0.59308 0.652181,1.36341 0.206249,1.71188 -0.445712,0.34844 -1.408698,0.96191 -2.139979,1.36328 z m -47.418079,34.1637 c -0.329507,-0.34944 -0.810712,-1.41607 -1.069335,-2.37033 -0.258633,-0.95424 -0.07728,-2.10553 0.402988,-2.55844 0.572837,-0.54016 1.453387,-0.20819 2.559676,0.96497 1.424095,1.51019 1.454606,2.00701 0.196101,3.19376 -0.819685,0.77295 -1.759926,1.11946 -2.08943,0.77004 z m 1.015949,-33.85653 c -1.055788,0.35835 -2.221195,0.33177 -2.589806,-0.0592 -0.368606,-0.3909 -0.598266,-1.61727 -0.510359,-2.72531 0.08789,-1.10805 0.47403,-2.31091 0.858045,-2.67304 0.398271,-0.37556 1.529226,0.22281 2.632567,1.39286 1.063891,1.12819 1.843171,2.35771 1.731759,2.73219 -0.111424,0.37451 -1.066431,0.97409 -2.122206,1.33246 z m 7.781021,-6.61516 c -0.444502,-0.0132 -1.659356,-0.92635 -2.699658,-2.02953 -1.242657,-1.3178 -1.675171,-2.45554 -1.260901,-3.31683 0.41455,-0.86189 1.633376,-1.20594 3.557826,-1.00438 1.609981,0.16865 3.292579,0.69407 3.739108,1.16759 0.446539,0.47353 0.297289,1.3462 -0.331634,1.93927 -0.628931,0.59308 -1.380432,1.57091 -1.670015,2.17296 -0.289578,0.60204 -0.8902,1.08394 -1.334726,1.07092 z"
       style="color:#000000;fill:#00680b;fill-opacity:0.5;fill-rule:nonzero;stroke:#006500;stroke-width:1.04912794;stroke-linecap:butt;stroke-linejoin:miter;stroke-miterlimit:4;stroke-opacity:1;stroke-dasharray:none;stroke-dashoffset:0;marker:none;visibility:visible;display:inline;overflow:visible;filter:url(#filter3820-0-9-4);enable-background:accumulate" />
  </g>
  <g
     inkscape:groupmode="layer"
     id="layer2"
     inkscape:label="Orme"
     style="display:inline">
    <path
       id="path2914"
       d="m 209.56744,159.9206 c -3.5015,0.0557 -7.08744,-0.10398 -7.96874,-0.35486 -0.88132,-0.25088 -4.35284,-1.70094 -7.71452,-3.22234 -3.36169,-1.52141 -7.55528,-3.22081 -9.3191,-3.77644 -1.76381,-0.55563 -4.3524,-0.97078 -5.75243,-0.92255 -1.4,0.0483 -5.16711,1.02561 -8.37133,2.17198 -3.20423,1.14635 -6.99876,2.11056 -8.43231,2.14266 -1.43356,0.0321 -3.23934,-0.24984 -4.01287,-0.62656 -0.77352,-0.37673 -2.09177,-1.27861 -2.92941,-2.00419 -0.83765,-0.72559 -1.97267,-2.13849 -2.52225,-3.13977 -0.55594,-1.01289 -1.03615,-3.46798 -1.08242,-5.53411 -0.0554,-2.47422 0.34328,-4.64725 1.19461,-6.51119 0.70279,-1.5387 2.26806,-4.00838 3.47837,-5.48818 1.2103,-1.47982 4.5135,-4.28638 7.34041,-6.23683 2.82691,-1.95043 6.38348,-4.2138 7.90349,-5.0297 1.52001,-0.81591 5.41066,-2.63445 8.64589,-4.04119 3.23522,-1.40674 7.90195,-3.96664 10.37047,-5.68865 2.46854,-1.72202 5.60967,-3.54561 6.98029,-4.05243 1.90838,-0.70568 3.08986,-0.7748 5.04451,-0.29514 1.40387,0.3445 3.67269,1.59373 5.04178,2.77606 1.36913,1.18233 3.63183,3.76718 5.02825,5.74409 1.39641,1.97692 3.67413,5.06447 5.06157,6.86122 1.38748,1.79675 3.79084,3.9388 5.34083,4.7601 1.55,0.82131 3.83581,1.80406 5.07958,2.18388 1.30718,0.39917 3.22954,1.81947 4.5556,3.36582 1.47493,1.71988 2.5231,3.7649 2.93527,5.72667 0.35261,1.67832 0.55655,3.36252 0.45319,3.74267 -0.10335,0.38018 -0.34166,1.47753 -0.52959,2.43857 -0.18793,0.96103 -1.23536,2.81236 -2.32763,4.11406 -1.09227,1.30168 -3.52154,3.55519 -5.3984,5.00776 -1.87685,1.45259 -5.2832,3.34894 -7.56962,4.21418 -3.33636,1.26255 -5.41412,1.59313 -10.5235,1.67441 z m -59.39803,-33.26025 c -2.06339,0.19227 -4.35368,0.10411 -5.08951,-0.19579 -0.73584,-0.29995 -2.09594,-1.40636 -3.02243,-2.45867 -0.92649,-1.05231 -2.18284,-3.30833 -2.79187,-5.01338 -0.92024,-2.57624 -1.01011,-3.84201 -0.53189,-7.49098 0.3165,-2.415 1.32789,-5.97612 2.24752,-7.91359 0.96472,-2.03252 2.56833,-4.156329 3.79082,-5.020589 1.16534,-0.82386 2.98013,-1.51721 4.03285,-1.54079 1.39688,-0.0313 2.56726,0.61369 4.3315,2.38703 1.34873,1.355679 3.34704,4.529149 4.52022,7.178399 1.47529,3.33157 2.12579,5.77653 2.17992,8.19363 0.0529,2.36324 -0.36102,4.32062 -1.31815,6.23299 -0.7674,1.53333 -2.11575,3.35133 -2.99633,4.04001 -1.00662,0.78726 -2.99388,1.38193 -5.35267,1.60173 z m 88.65428,-4.95647 c -0.44955,-0.02 -1.64135,-0.26339 -2.64845,-0.54077 -1.0071,-0.27738 -2.42433,-1.00913 -3.14942,-1.62609 -0.72506,-0.61698 -1.72908,-2.03478 -2.23115,-3.15067 -0.50206,-1.1159 -0.94113,-3.29214 -0.97571,-4.83612 -0.0457,-2.0423 0.64175,-4.27583 2.52308,-8.19696 1.81002,-3.772529 3.24265,-5.846289 4.77453,-6.911249 2.16751,-1.50686 2.18569,-1.56061 1.8883,-5.58436 -0.16516,-2.23457 -0.11045,-4.38608 0.12172,-4.78114 0.28827,-0.49066 0.83425,-0.36166 1.7229,0.40707 0.7155,0.61894 1.71858,1.89056 2.22909,2.82582 0.51051,0.93524 0.94421,2.41655 0.96381,3.2918 0.0196,0.87523 -0.45923,1.88854 -1.06407,2.25178 -0.99384,0.59686 -0.90294,0.83385 0.94424,2.4616 1.12419,0.99064 2.53929,2.708599 3.14467,3.817689 0.60535,1.1091 1.29625,3.4014 1.53526,5.09404 0.28749,2.03583 0.10977,4.10574 -0.52511,6.11524 -0.52783,1.67072 -1.69528,4.04826 -2.59435,5.28338 -0.89905,1.23513 -2.5813,2.66637 -3.73831,3.18053 -1.15702,0.51416 -2.47149,0.91844 -2.92103,0.89841 z m -68.78362,-14.32677 c -1.32412,0.0294 -3.62673,-0.51647 -5.11692,-1.21301 -2.30064,-1.07535 -2.92658,-1.80593 -4.14855,-4.84227 -1.20281,-2.988669 -1.41798,-4.569779 -1.31036,-9.628909 0.0977,-4.59145 0.46101,-6.78384 1.50473,-9.0794 1.06903,-2.35122 2.01772,-3.35493 4.25279,-4.49938 2.5983,-1.33043 3.16159,-1.40416 5.8177,-0.76155 1.77779,0.43012 3.88941,1.59363 5.33923,2.94195 1.31909,1.22674 2.75581,3.04154 3.1927,4.03288 0.43687,0.99135 1.04599,1.79684 1.35363,1.78994 0.30764,-0.007 0.52696,-1.4575 0.48742,-3.22357 -0.0396,-1.76607 0.36086,-5.11326 0.88981,-7.43821 0.75268,-3.30818 1.52531,-4.84233 3.55395,-7.05676 2.19776,-2.39899 2.97207,-2.83773 5.08842,-2.88311 1.37292,-0.0294 3.40623,0.47381 4.5185,1.1183 1.11225,0.64451 2.78444,2.126 3.71599,3.2922 0.93153,1.16621 2.18048,3.2158 2.77545,4.55463 0.59494,1.33885 1.39505,4.13608 1.77799,6.21607 0.38294,2.07999 0.53387,5.05911 0.3354,6.62024 -0.19942,1.56844 -1.22955,4.16145 -2.30236,5.79532 -1.06782,1.62628 -2.92003,3.51023 -4.11603,4.18656 -1.19599,0.67633 -3.43419,1.25791 -4.97377,1.29239 -1.65749,0.0371 -3.62388,-0.42178 -4.821,-1.12509 -1.11196,-0.65329 -2.69026,-2.05088 -3.50733,-3.10576 -0.81707,-1.05489 -1.76344,-1.91174 -2.10306,-1.90414 -0.33962,0.008 -0.58836,1.31423 -0.55276,2.90363 0.0356,1.58939 -0.45389,3.9647 -1.08773,5.278479 -0.63386,1.31377 -1.68371,2.89118 -2.33304,3.50534 -0.64932,0.61417 -2.22519,1.58088 -3.50194,2.14823 -1.27675,0.56738 -3.40474,1.05562 -4.72886,1.085 z m 49.96406,-2.73722 c -0.46268,0.17092 -1.9961,-0.0706 -3.40765,-0.53662 -1.41152,-0.46606 -3.07763,-1.447 -3.70247,-2.17987 -0.62481,-0.73287 -1.48549,-2.515539 -1.91263,-3.961479 -0.49487,-1.67529 -0.75956,-6.44134 -0.72963,-13.13826 0.0436,-9.76046 0.1594,-10.74157 1.62506,-13.76896 0.86795,-1.79281 2.01805,-3.64175 2.55579,-4.10875 0.61557,-0.53461 1.63267,-0.7002 2.74614,-0.4471 0.97266,0.2211 2.94112,1.57229 4.37435,3.00264 1.43323,1.43038 4.10221,5.43105 5.93105,8.89041 3.11738,5.89667 3.33057,6.58813 3.41122,11.06429 0.0652,3.62325 -0.22919,5.40635 -1.2212,7.39471 -0.71897,1.4411 -2.45095,3.700949 -3.84883,5.021889 -1.39789,1.32095 -3.09026,2.41401 -3.76081,2.42903 -0.67056,0.015 -1.59774,0.16715 -2.06039,0.33806 z m -79.01744,-9.348809 c -0.62234,0.0139 -1.68991,-0.56454 -2.37234,-1.28549 -0.94057,-0.99365 -1.3166,-2.48778 -1.554,-6.17461 -0.2778,-4.31409 -0.11883,-5.2608 1.40276,-8.37675 0.94378,-1.93215 2.06623,-3.62725 2.49433,-3.7669 0.59026,-0.19254 0.80031,1.65739 0.86919,7.65559 0.05,4.35021 0.30424,8.23811 0.56508,8.63975 0.26122,0.4014 0.306,1.30464 0.10036,2.00666 -0.20563,0.70202 -0.88306,1.28781 -1.5054,1.30175 z m 17.99671,-29.0619 c -0.87079,0.0195 -1.91733,-0.60566 -2.54728,-1.52167 -0.97111,-1.41215 -0.98586,-1.81867 -0.16055,-4.43123 0.49981,-1.58205 1.77369,-4.19592 2.83083,-5.80861 1.05714,-1.61267 2.19475,-2.93824 2.52803,-2.94571 0.33328,-0.007 0.62934,0.20085 0.65792,0.46291 0.0286,0.26207 0.14357,2.9712 0.25542,6.0203 0.16762,4.56809 0.002,5.77676 -0.94148,6.86736 -0.62973,0.72795 -1.81006,1.33845 -2.62297,1.35665 z m 54.40835,-3.25621 c -0.90285,0.1255 -1.93898,-0.13788 -2.3025,-0.58529 -0.36349,-0.44742 -0.86054,-1.33322 -1.10365,-1.96904 -0.24351,-0.63556 -0.2938,-2.72532 -0.11201,-4.6439 0.25886,-2.72826 0.55479,-3.4523 1.35808,-3.32297 0.56491,0.0909 1.71009,1.43972 2.54481,2.99726 0.93198,1.73888 1.46736,3.69333 1.38715,5.06383 -0.10934,1.86885 -0.39764,2.26906 -1.77215,2.46012 z m -27.78621,-4.47385 c -1.26827,0.15311 -2.31473,-0.16937 -3.04165,-0.93732 -0.60951,-0.64391 -1.12304,-2.00761 -1.14119,-3.03045 -0.0179,-1.02284 0.44276,-3.5892 1.02424,-5.70305 0.65014,-2.36339 1.44555,-3.92719 2.06565,-4.06107 0.75165,-0.16229 1.47043,1.07247 2.82293,4.84935 1.60683,4.48711 1.72231,5.27207 1.00901,6.85809 -0.57848,1.28623 -1.35043,1.85681 -2.73898,2.02445 z"
       style="fill:#008800;fill-opacity:1;stroke:#006500;stroke-opacity:1" />
    <path
       id="path3066"
       d="m 271.33877,204.4089 c -1.78319,-2.03319 -3.44574,-5.33079 -3.69459,-7.32795 -0.24881,-1.99717 0.43862,-4.96956 1.52769,-6.6053 1.08907,-1.63573 5.01288,-4.26391 8.71967,-5.84035 3.70675,-1.57643 9.90672,-4.23585 13.77767,-5.90982 5.41255,-2.34063 8.03044,-2.63012 11.33466,-1.25337 2.44087,1.017 5.35933,3.35078 6.75719,5.40341 1.35333,1.98724 2.21387,3.98958 1.9123,4.44964 -0.30157,0.46006 -0.0105,3.86231 0.64683,7.56057 0.65733,3.69825 0.47918,8.9643 -0.39588,11.70232 -0.87505,2.73805 -2.18921,5.89701 -2.92031,7.01995 -0.73125,1.12286 -3.0062,2.98699 -5.0557,4.14233 -2.68165,1.5117 -5.31792,1.55267 -9.40316,0.14611 -3.12224,-1.07497 -8.89146,-3.71767 -12.82052,-5.87265 -3.92902,-2.15499 -8.60262,-5.58175 -10.38585,-7.61489 z m 44.63401,6.48364 c -0.25743,-1.23707 0.32202,-3.45453 1.28768,-4.92769 0.96567,-1.47317 3.05838,-3.41563 4.65049,-4.31658 1.59211,-0.90096 4.69027,-2.10005 6.88484,-2.66462 2.80119,-0.72065 5.27292,-0.18561 8.29541,1.79563 3.27746,2.14838 4.30515,3.73598 4.30458,6.64986 -5.4e-4,2.76647 -0.7849,4.39616 -2.82902,5.87795 -1.55558,1.12763 -5.43864,2.68682 -8.62904,3.46487 -4.3338,1.05689 -6.77389,0.77675 -9.64883,-1.10779 -2.11643,-1.38732 -4.05869,-3.53456 -4.31611,-4.77163 z M 268.53629,169.5242 c -0.20791,-2.40378 0.2812,-6.10079 1.08698,-8.21557 1.01,-2.65087 2.87222,-4.54864 5.99592,-6.11038 3.08533,-1.54254 5.61554,-1.72216 7.93038,-0.56295 2.04418,1.02366 3.76927,3.12093 4.327,5.26055 0.51016,1.95699 0.73699,5.40194 0.5041,7.65541 -0.23291,2.25348 -0.91537,4.84767 -1.51662,5.76488 -0.60122,0.9172 -3.43966,2.37059 -6.30767,3.22975 -3.5676,1.06871 -6.22954,0.89673 -8.42828,-0.54454 -2.09531,-1.37347 -3.34535,-3.62767 -3.59181,-6.47715 z m 53.2149,12.26982 c -0.16474,-1.45832 0.95926,-4.57185 2.49779,-6.91896 1.53852,-2.34709 4.70018,-5.34012 7.02587,-6.65116 2.32573,-1.31104 6.01578,-2.69013 8.20019,-3.06462 2.18439,-0.37449 5.30211,0.19123 6.92827,1.25718 1.62617,1.06595 3.16728,2.95024 3.42469,4.1873 0.25742,1.23707 -0.98998,4.47351 -2.77201,7.19208 -1.78203,2.71858 -4.54126,5.68095 -6.13163,6.58304 -1.59039,0.9021 -5.11678,2.18467 -7.83648,2.85015 -3.02633,0.74053 -6.12675,0.43527 -7.99101,-0.78675 -1.67538,-1.09822 -3.18094,-3.18991 -3.34568,-4.64826 z M 302.39193,165.0253 c -1.03881,-1.49087 -1.52518,-4.36035 -1.08083,-6.37661 0.44434,-2.01627 2.289,-5.92548 4.09927,-8.68713 2.30184,-3.51156 4.41839,-5.25569 7.04009,-5.80124 2.06178,-0.42904 4.92246,-0.0107 6.35708,0.92973 1.46412,0.95974 3.12221,4.38818 3.77972,7.81538 0.96708,5.04088 0.58533,6.99957 -2.18919,11.23224 -2.55315,3.89494 -4.37779,5.30543 -7.5946,5.87073 -2.32876,0.40923 -5.19906,0.0653 -6.37847,-0.76418 -1.17937,-0.82958 -2.99428,-2.72805 -4.03307,-4.21892 z"
       style="fill:#008800;fill-opacity:1;stroke:#006500;stroke-opacity:1" />
    <path
       id="path3146"
       d="m 94.534901,230.97067 c -0.804547,0.46058 -2.849304,0.83836 -4.543915,0.83953 -1.694611,0.001 -4.087513,-0.73055 -5.317565,-1.62606 -1.230052,-0.8955 -2.729666,-2.50962 -3.332511,-3.5869 -0.602831,-1.07732 -0.887676,-4.98525 -0.63298,-8.68431 0.254675,-3.69908 0.04386,-8.16002 -0.468491,-9.91321 -0.512343,-1.75318 -0.765674,-4.94315 -0.562957,-7.0888 0.322036,-3.40862 0.800807,-4.30877 3.791993,-7.12942 2.117024,-1.99633 4.253541,-3.34951 5.598777,-3.54602 1.196454,-0.17477 4.706417,0.44311 7.799928,1.37306 3.093484,0.92997 8.63936,1.69206 12.32417,1.69352 6.00602,0.002 6.93189,0.24918 8.94273,2.38134 1.4042,1.4891 2.44797,3.61654 2.79105,5.6887 l 0.548,3.31005 -6.18657,6.53527 c -3.40262,3.59438 -9.1346,9.32087 -12.73772,12.72554 -3.60323,3.40458 -7.20942,6.56715 -8.013967,7.02773 z m 9.882949,-44.21715 c -0.854,0.54078 -3.24054,0.82376 -5.303427,0.62888 -2.062883,-0.19489 -4.545561,-0.86253 -5.517065,-1.48362 -0.971494,-0.62109 -2.200463,-1.90504 -2.730964,-2.85326 -0.530564,-0.94817 -0.828256,-5.75605 -0.661548,-10.68417 0.166707,-4.92813 0.764542,-9.68408 1.328509,-10.56877 0.579691,-0.90933 2.029099,-1.78703 3.334481,-2.01921 1.269987,-0.22587 3.924561,0.3695 5.899024,1.32306 3.05979,1.47777 3.95901,2.32529 6.08921,5.73915 1.37462,2.20292 2.80643,5.28537 3.18183,6.84986 0.37539,1.5645 0.0609,4.57104 -0.69889,6.68121 -0.75977,2.11018 -1.82846,4.18924 -2.37487,4.62015 -0.5464,0.4309 -1.69222,1.22591 -2.54621,1.76669 z m -39.659973,28.16606 c -1.879989,0.63384 -4.775672,1.05648 -6.434845,0.93919 -2.635626,-0.18632 -3.52486,-0.75367 -7.039501,-4.49118 -3.238073,-3.44333 -4.22346,-5.07265 -5.051451,-8.35187 -0.629478,-2.49308 -0.604476,-4.8953 0.06397,-6.19045 0.697181,-1.35047 1.873842,-2.46338 3.251227,-3.07482 1.187166,-0.52716 3.467583,-0.66333 5.067596,-0.30262 1.600013,0.36072 5.552819,1.87475 8.784001,3.36453 l 5.874901,2.70868 0.839924,3.22134 c 0.461975,1.77177 0.61167,4.32286 0.332588,5.66914 -0.27904,1.34627 -0.903976,3.10206 -1.38872,3.90176 -0.484764,0.79969 -2.419547,1.9726 -4.299546,2.60646 z m 13.826792,-39.59532 c -1.274744,0.33637 -3.91815,-0.0483 -5.874227,-0.85493 -2.595535,-1.07024 -4.769726,-2.76677 -8.046485,-6.27885 -2.469485,-2.64677 -5.144899,-6.22195 -5.945373,-7.94483 -0.800483,-1.72286 -1.474361,-4.25493 -1.497512,-5.62681 -0.03206,-1.90144 0.615234,-3.11417 2.72315,-5.10192 2.258997,-2.13021 3.35383,-2.57767 5.980337,-2.44427 2.003695,0.10171 5.235835,1.3717 8.5781,3.37039 3.65712,2.18699 6.322369,4.38419 8.379195,6.90767 2.279002,2.79613 3.024185,4.4205 3.048833,6.64598 0.01795,1.61997 -0.483754,4.12722 -1.114883,5.57167 -0.631147,1.44448 -1.769846,3.19287 -2.530473,3.88531 -0.760613,0.69249 -2.425917,1.53424 -3.700662,1.87059 z m -18.423921,13.45615 c -1.650225,0.34917 -3.972837,0.38734 -5.161375,0.0848 -1.18854,-0.30252 -3.378919,-1.48638 -4.867527,-2.6308 -1.817679,-1.39742 -3.364101,-3.45295 -4.708768,-6.25889 -1.1012,-2.29797 -2.281875,-6.30445 -2.623705,-8.90332 -0.456558,-3.47102 -0.194097,-5.31232 0.988814,-6.93713 0.885683,-1.21657 2.472327,-2.8567 3.525888,-3.64476 1.361137,-1.0181 2.653461,-1.15076 4.465103,-0.4583 1.797398,0.68705 4.686835,3.22007 9.794454,8.58631 l 7.244906,7.61181 -0.302436,3.57967 c -0.233768,2.76694 -0.875991,4.11958 -2.828696,5.9577 -1.450343,1.36533 -3.804065,2.6484 -5.526666,3.01289 z m 30.294936,-31.65515 c -0.974854,0.53501 -1.550861,0.2867 -2.15887,-0.93072 -0.456086,-0.91325 -0.826051,-2.17027 -0.822143,-2.79338 0.0048,-0.74556 0.67228,-1.01265 1.952389,-0.78115 1.069906,0.19349 2.402855,0.83703 2.962125,1.43012 0.559268,0.59308 0.652181,1.36341 0.206249,1.71188 -0.445712,0.34844 -1.408698,0.96191 -2.139979,1.36328 z m -47.418079,34.1637 c -0.329507,-0.34944 -0.810712,-1.41607 -1.069335,-2.37033 -0.258633,-0.95424 -0.07728,-2.10553 0.402988,-2.55844 0.572837,-0.54016 1.453387,-0.20819 2.559676,0.96497 1.424095,1.51019 1.454606,2.00701 0.196101,3.19376 -0.819685,0.77295 -1.759926,1.11946 -2.08943,0.77004 z m 1.015949,-33.85653 c -1.055788,0.35835 -2.221195,0.33177 -2.589806,-0.0592 -0.368606,-0.3909 -0.598266,-1.61727 -0.510359,-2.72531 0.08789,-1.10805 0.47403,-2.31091 0.858045,-2.67304 0.398271,-0.37556 1.529226,0.22281 2.632567,1.39286 1.063891,1.12819 1.843171,2.35771 1.731759,2.73219 -0.111424,0.37451 -1.066431,0.97409 -2.122206,1.33246 z m 7.781021,-6.61516 c -0.444502,-0.0132 -1.659356,-0.92635 -2.699658,-2.02953 -1.242657,-1.3178 -1.675171,-2.45554 -1.260901,-3.31683 0.41455,-0.86189 1.633376,-1.20594 3.557826,-1.00438 1.609981,0.16865 3.292579,0.69407 3.739108,1.16759 0.446539,0.47353 0.297289,1.3462 -0.331634,1.93927 -0.628931,0.59308 -1.380432,1.57091 -1.670015,2.17296 -0.289578,0.60204 -0.8902,1.08394 -1.334726,1.07092 z"
       style="fill:#008800;fill-opacity:1;stroke:#006500;stroke-width:1.04912794;stroke-opacity:1" />
    <path
       id="path3226"
       d="m 201.26817,344.73019 c -2.07726,-1.13024 -4.43194,-2.6329 -5.23265,-3.33922 -0.80068,-0.70633 -2.32982,-1.79427 -3.39809,-2.41767 -1.06827,-0.6234 -2.30302,-1.171 -2.74388,-1.21691 -0.44087,-0.0459 -1.51554,-0.63452 -2.38816,-1.30804 l -1.58657,-1.22456 -1.11467,1.01225 c -0.61307,0.55674 -2.15964,1.33987 -3.4368,1.7403 -1.39454,0.43723 -4.40357,0.65521 -7.53284,0.54567 -4.06691,-0.14235 -5.836,-0.43698 -8.05922,-1.34218 -1.56667,-0.6379 -4.80966,-2.76129 -7.20664,-4.71866 -2.39698,-1.95736 -4.92052,-4.38839 -5.60785,-5.40227 -0.68733,-1.01388 -1.54529,-3.08391 -1.9066,-4.60007 -0.38988,-1.63607 -1.20153,-3.23902 -1.99667,-3.94327 -0.98742,-0.87456 -1.29315,-1.63401 -1.16259,-2.88789 0.0974,-0.9357 -0.0397,-1.9685 -0.30468,-2.29511 -0.265,-0.32662 -0.55042,-1.66133 -0.63428,-2.96605 -0.13275,-2.06562 -0.33601,-2.4131 -1.57282,-2.68867 -0.78865,-0.17572 -1.7686,-0.94119 -2.20333,-1.72113 -0.43064,-0.77256 -1.4713,-2.46911 -2.31261,-3.77009 -1.39595,-2.15869 -1.44592,-2.4142 -0.5717,-2.92363 0.66253,-0.38607 1.34172,-0.36467 2.20244,0.0694 0.68448,0.34517 1.71362,0.67644 2.28697,0.73614 0.57335,0.0597 1.68444,-0.41235 2.46909,-1.04899 1.09244,-0.88639 1.48446,-1.71302 1.67355,-3.52897 0.19873,-1.90853 0.55563,-2.60316 1.82841,-3.55856 0.8698,-0.65293 1.72723,-1.17196 1.90539,-1.15341 0.17814,0.0186 1.42569,-1.22838 2.77232,-2.77095 1.34663,-1.54257 3.18777,-3.36901 4.09147,-4.05873 0.90367,-0.68974 2.92529,-1.73634 4.49247,-2.32579 1.56718,-0.58945 3.15739,-1.03966 3.53377,-1.00047 0.3764,0.0392 1.24774,0.736 1.93632,1.54845 0.76429,0.90179 1.59374,1.38529 2.1294,1.24127 0.4826,-0.12975 1.35439,-0.82115 1.93732,-1.53643 0.58292,-0.71529 1.33083,-2.11387 1.66201,-3.10795 0.33117,-0.99408 0.82272,-2.42955 1.09231,-3.18993 0.44071,-1.24303 0.23636,-1.57761 -2.02538,-3.31617 -1.38354,-1.06351 -2.48776,-2.20048 -2.4538,-2.52658 0.034,-0.32612 -0.82567,-1.70784 -1.91029,-3.07049 l -1.97202,-2.47756 1.28111,-1.10754 c 0.70462,-0.60914 1.31968,-1.4778 1.3668,-1.93035 0.0471,-0.45254 -0.23894,-1.15471 -0.63568,-1.56035 -0.39676,-0.40564 -0.65267,-1.35954 -0.56869,-2.11978 0.0842,-0.76021 0.78498,-2.26966 1.55778,-3.35428 0.77281,-1.08461 2.00947,-2.19864 2.74813,-2.47561 0.73867,-0.27698 1.79392,-1.24916 2.345,-2.16042 0.65936,-1.09029 1.44932,-1.67327 2.31026,-1.7049 0.71954,-0.0264 2.601,0.49506 4.181,1.15891 l 2.87275,1.20698 2.72852,-1.11065 c 2.53387,-1.03141 3.04524,-1.05374 7.16841,-0.31313 4.08698,0.73411 4.52882,0.71716 5.55879,-0.21327 0.68767,-0.6212 1.75466,-0.94456 2.76843,-0.839 0.90723,0.0945 2.42452,0.68884 3.37174,1.32082 0.94721,0.63199 2.90395,2.08234 4.3483,3.22301 2.20709,1.74303 3.25987,2.1861 6.59829,2.77696 l 3.97219,0.70303 2.67036,4.00283 c 1.4687,2.20156 3.56407,6.1312 4.65639,8.73256 1.09231,2.60135 2.42483,5.33694 2.96117,6.07908 0.53634,0.74213 1.58016,1.74877 2.31961,2.23694 0.73945,0.48819 2.17984,0.9746 3.20087,1.08091 1.35215,0.1408 2.02652,0.53623 2.48263,1.45576 0.34442,0.69435 0.74409,2.98895 0.88815,5.09911 0.14939,2.1882 -0.0615,5.83178 -0.49083,8.48018 -0.4807,2.96534 -1.15993,5.26785 -1.87942,6.37105 -0.61968,0.95014 -1.62578,2.24662 -2.23578,2.88105 -0.61,0.63443 -1.16396,1.68044 -1.23102,2.32444 -0.0671,0.644 -0.97124,2.42863 -2.00929,3.96583 -1.03805,1.53721 -1.96003,3.49284 -2.04885,4.34583 -0.0888,0.853 -1.08731,2.96846 -2.21887,4.70102 -1.13155,1.73257 -2.47275,4.02966 -2.98044,5.10464 -0.60855,1.28856 -0.90321,2.92068 -0.8648,4.79008 0.0396,1.92881 -0.29049,3.67807 -1.03224,5.47028 -0.59978,1.44909 -1.71893,3.4466 -2.48702,4.43888 -0.76808,0.99228 -1.81772,2.38408 -2.33254,3.09287 -0.5148,0.70879 -1.57699,2.08703 -2.36041,3.06273 -0.78341,0.9757 -2.26561,2.18017 -3.29377,2.6766 -1.16849,0.56418 -3.12917,0.86552 -5.22934,0.8037 -2.89628,-0.0852 -3.88114,-0.38252 -7.13679,-2.15388 z m -8.4585,-21.62784 c 0.77702,-0.79694 2.26,-3.15548 3.29551,-5.2412 1.03552,-2.08572 2.97455,-4.96312 4.30895,-6.39423 1.33442,-1.43109 3.83754,-3.58511 5.5625,-4.78669 2.02058,-1.40751 3.61668,-3.0435 4.48667,-4.5988 0.74272,-1.32775 1.44984,-3.36908 1.57138,-4.53629 0.19466,-1.86942 -0.13629,-2.61278 -2.7784,-6.24092 -1.78103,-2.44567 -3.18736,-5.02709 -3.46213,-6.35496 -0.32666,-1.57858 -0.84934,-2.41811 -1.77732,-2.85466 -0.72302,-0.34014 -2.40282,-0.56932 -3.73291,-0.50929 -1.33009,0.06 -2.88291,0.37984 -3.45072,0.71071 -0.94297,0.5495 -1.00161,0.86461 -0.67723,3.63859 0.19531,1.67034 0.85993,3.78162 1.47691,4.69172 0.67424,0.9946 0.9552,1.98255 0.70421,2.47644 -0.22967,0.45194 -0.84542,0.9964 -1.36835,1.20991 -0.65941,0.26925 -1.3974,0.0486 -2.40818,-0.72001 -0.80157,-0.60953 -2.57258,-1.39608 -3.93558,-1.7479 -1.90109,-0.4907 -2.80777,-0.46964 -3.89342,0.0905 -0.77839,0.40156 -1.84289,1.5138 -2.36557,2.47161 -0.76096,1.39448 -0.87781,2.19581 -0.5864,4.02141 0.20016,1.25394 0.60285,3.33556 0.89486,4.62582 0.29203,1.29025 1.07016,3.52632 1.7292,4.96904 0.65903,1.44272 1.47383,3.83186 1.81065,5.30921 0.33683,1.47734 0.47429,4.01246 0.30548,5.63359 -0.18907,1.81577 -0.039,3.42949 0.39071,4.20277 0.3837,0.69039 1.10011,1.28392 1.59202,1.31895 0.49192,0.035 1.53013,-0.58834 2.30716,-1.38527 l 0,-5e-5 z m -71.30873,-53.37699 c -1.10891,-0.83217 -2.53837,-2.47532 -3.17657,-3.65143 -0.6382,-1.1761 -1.82356,-4.22169 -2.63415,-6.76797 -1.16903,-3.67234 -1.37018,-5.05829 -0.97275,-6.70297 0.33028,-1.36695 1.10023,-2.55962 2.25979,-3.50046 1.4782,-1.19939 2.24881,-1.40547 4.82992,-1.29163 2.16076,0.0953 3.6252,0.4738 4.94045,1.27681 1.02815,0.62774 3.05056,2.34187 4.49427,3.80917 1.87254,1.90316 2.79047,3.36042 3.20257,5.08423 0.3177,1.32902 0.50805,3.08485 0.42298,3.90184 -0.0851,0.81698 -0.67778,1.90985 -1.31711,2.42861 -0.63934,0.51874 -1.61645,0.89589 -2.17138,0.83811 -0.55492,-0.0578 -1.14148,0.18045 -1.3035,0.52941 -0.16199,0.34896 -0.18151,1.28827 -0.0433,2.08737 0.154,0.89035 -0.0176,1.73883 -0.44311,2.19136 -0.38193,0.40616 -1.38702,0.91658 -2.23356,1.13427 -0.84653,0.21768 -2.05649,0.33966 -2.68877,0.27105 -0.63226,-0.0688 -2.05691,-0.8056 -3.16582,-1.63777 l 4e-5,0 z m 120.64947,-2.88489 c -0.61459,-0.81919 -1.20061,-2.07055 -1.30225,-2.78082 -0.10166,-0.71027 0.10997,-1.87594 0.47025,-2.59038 0.36029,-0.71445 1.02386,-1.26059 1.47461,-1.21366 0.45075,0.0469 1.57761,0.49902 2.50415,1.00462 0.92653,0.50561 1.81075,1.18052 1.9649,1.49981 0.15416,0.31927 -0.20883,1.51014 -0.8067,2.64636 -0.59784,1.13622 -1.55961,2.25882 -2.13725,2.49468 -0.83889,0.34252 -1.27519,0.12904 -2.1677,-1.06061 l -1e-5,0 z m -66.90798,-24.05589 c -0.79819,-0.69271 -1.7249,-0.94337 -3.19052,-0.86295 l -2.06561,0.11333 0.0699,-2.24313 c 0.0519,-1.66575 -0.20555,-2.41733 -1.00016,-2.91988 -0.58851,-0.37221 -1.41772,-1.03223 -1.84268,-1.46672 -0.42497,-0.43449 -0.71603,-1.33379 -0.64682,-1.99847 0.0692,-0.66467 0.30864,-1.56822 0.53205,-2.00788 0.22343,-0.43967 0.65834,-0.77314 0.96647,-0.74105 0.30813,0.0321 0.96181,0.50574 1.45264,1.05257 0.84479,0.94118 0.91494,0.93429 1.31465,-0.12916 0.27945,-0.7435 0.79983,-1.06279 1.53878,-0.94418 0.61408,0.0986 1.73357,0.39472 2.48773,0.65812 0.93243,0.32567 1.95088,1.58236 3.1828,3.9273 1.24325,2.36656 1.74832,4.00502 1.60991,5.22267 -0.11066,0.97589 -0.55952,2.15607 -0.99689,2.62268 -0.43737,0.46662 -1.13093,0.81344 -1.54126,0.77071 -0.41032,-0.0427 -1.25226,-0.51701 -1.87098,-1.05396 l -10e-6,0 z m 44.81508,4.19538 c -0.78482,-0.81338 -1.9375,-1.53203 -2.5615,-1.597 -0.624,-0.065 -1.792,-0.54983 -2.59556,-1.07744 -0.80355,-0.52762 -1.77342,-1.7565 -2.15525,-2.73085 -0.61756,-1.57583 -0.55707,-2.41449 0.5474,-7.59146 0.92505,-4.33588 1.29911,-7.76227 1.46695,-13.43715 0.12392,-4.18947 0.32996,-9.52192 0.45787,-11.84989 0.12791,-2.32796 0.12219,-5.68085 -0.0127,-7.45086 -0.17232,-2.26106 0.0376,-4.37564 0.70606,-7.10995 0.5232,-2.14048 1.40812,-4.83254 1.96649,-5.98236 0.55837,-1.14982 1.49215,-2.43966 2.07509,-2.8663 0.58294,-0.42664 1.9411,-0.8261 3.01816,-0.88769 1.31887,-0.0754 2.61072,0.26783 3.95638,1.05173 1.09894,0.64004 2.36285,1.9417 2.80868,2.89257 0.44582,0.95086 0.99495,2.61413 1.22028,3.69613 0.22533,1.08199 0.42432,3.81333 0.44221,6.06961 0.0241,3.04383 -0.25758,4.98929 -1.09172,7.53969 -0.67966,2.07802 -1.1101,4.54386 -1.08848,6.23544 0.0197,1.53896 -0.41561,5.50442 -0.96727,8.81212 -0.68593,4.11265 -1.20215,5.99328 -1.63287,5.94843 -0.34639,-0.0361 -0.73185,-1.19576 -0.85656,-2.57708 -0.1247,-1.38133 -0.49338,-2.63014 -0.81927,-2.77515 -0.32589,-0.14501 -0.76885,0.1502 -0.98433,0.65603 -0.2155,0.50583 -0.60893,2.57323 -0.87431,4.59421 -0.38924,2.96471 -0.70293,3.81847 -1.62371,4.41961 -1.13776,0.74281 -1.1382,0.7505 -0.14073,2.51287 0.55028,0.97228 1.32572,1.80165 1.7232,1.84304 0.39748,0.0414 0.89375,-0.14639 1.10283,-0.41727 0.20908,-0.2709 0.80965,-0.44781 1.3346,-0.39314 0.70083,0.073 0.9846,0.6487 1.06788,2.16649 0.0624,1.13692 -0.27713,3.74517 -0.75446,5.79612 -0.47732,2.05097 -1.3103,4.27191 -1.85104,4.93544 -0.54075,0.66353 -1.31488,1.17188 -1.72026,1.12967 -0.4054,-0.0422 -1.37921,-0.74225 -2.16404,-1.55561 l -2e-5,0 z m 1.97079,-5.68904 0.30379,-1.52366 -1.19102,1.12866 c -0.65506,0.62076 -1.07552,1.36783 -0.93439,1.66015 0.14114,0.29232 0.54038,0.47008 0.8872,0.39501 0.34683,-0.0751 0.7673,-0.82214 0.93442,-1.66016 z m -2.28822,-13.60242 c 0.17814,-0.70998 -0.0849,-1.37521 -0.71153,-1.79945 -0.69902,-0.47327 -1.11369,-0.51817 -1.39689,-0.15149 -0.22152,0.28702 -0.31548,1.13186 -0.20876,1.87744 0.12878,0.89987 0.50339,1.32937 1.1143,1.27759 0.50617,-0.0429 1.04748,-0.58486 1.20291,-1.20436 l -3e-5,2.7e-4 z m 32.05653,19.15859 c -1.06905,-1.31756 -2.13951,-2.22651 -2.3788,-2.01989 -0.2393,0.20664 -0.56458,0.82127 -0.72286,1.36585 -0.15827,0.5446 -0.59415,1.05793 -0.9686,1.14074 -0.44771,0.099 -0.62219,-0.41233 -0.50962,-1.49347 0.0942,-0.90423 0.78836,-2.58791 1.54268,-3.74151 1.20686,-1.84566 1.43482,-2.83826 1.89914,-8.26858 0.45425,-5.31257 0.72386,-6.52195 1.9382,-8.69277 1.16299,-2.0791 1.93643,-2.75024 4.40702,-3.8242 1.64809,-0.71641 3.32918,-1.26792 3.73577,-1.22558 0.40659,0.0423 1.21293,0.54972 1.79186,1.12752 0.88658,0.88481 1.02291,1.75935 0.86427,5.54411 -0.1036,2.47147 -0.27989,5.3784 -0.39177,6.45982 -0.11307,1.09091 -0.77026,2.68064 -1.47672,3.57101 -0.70027,0.88262 -1.75781,2.33252 -2.35006,3.22199 -0.59226,0.88948 -1.43223,1.58023 -1.8666,1.535 -0.43439,-0.0452 -1.3024,-0.67439 -1.92894,-1.39811 l -1.13915,-1.31587 -1.49035,1.40562 c -1.43372,1.35219 -1.45603,1.43708 -0.58702,2.23338 0.49685,0.45527 1.53569,1.02733 2.30854,1.27123 0.77285,0.24391 1.64578,0.80359 1.93984,1.24376 0.369,0.55232 0.32912,1.31032 -0.12865,2.44634 -0.36738,0.91173 -1.08289,1.68243 -1.60387,1.72762 -0.5508,0.0478 -1.74612,-0.91121 -2.88432,-2.31401 l 10e-6,0 z m -60.37225,-8.70186 c -0.42612,-0.52516 -0.71486,-1.53013 -0.64163,-2.23326 0.097,-0.93199 0.42145,-1.24837 1.1972,-1.1676 0.62833,0.0654 1.25632,0.68363 1.5335,1.50961 0.38013,1.13275 0.29977,1.53644 -0.42246,2.12245 -0.80168,0.65048 -0.97021,0.6271 -1.66661,-0.23115 l 0,-5e-5 z m 8.20214,-2.69341 c -0.0961,-0.40018 -0.35593,-1.44496 -0.57732,-2.32174 -0.39611,-1.5687 -0.41651,-1.57805 -1.27718,-0.58634 -0.74415,0.85748 -1.15619,0.91276 -2.76228,0.37055 -1.03821,-0.3505 -2.42496,-1.29946 -3.08166,-2.10881 -1.15321,-1.42131 -1.15816,-1.5037 -0.14473,-2.41334 0.91253,-0.81908 0.99245,-1.20184 0.61337,-2.93764 -0.36445,-1.66872 -0.29291,-2.11184 0.43648,-2.70365 0.61193,-0.49652 1.35519,-0.54784 2.48974,-0.17192 0.88956,0.29475 1.93139,1.14458 2.31518,1.88849 0.38379,0.74393 0.52356,1.69548 0.31059,2.11455 -0.21295,0.41907 -0.28785,1.13148 -0.16685,1.58307 0.12143,0.45163 0.43231,0.84317 0.69086,0.8701 0.25854,0.0269 0.57055,-0.91595 0.69335,-2.09526 0.18116,-1.73977 0.38968,-2.09382 1.1055,-1.87709 0.5349,0.16196 0.9545,1.00242 1.06581,2.13485 0.10098,1.02726 0.10283,3.40052 0.004,5.27392 -0.1256,2.38351 -0.38382,3.45146 -0.86004,3.55698 -0.37432,0.083 -0.75922,-0.17658 -0.85535,-0.57676 l 5.3e-4,4e-5 z m -26.0068,-11.15717 c -0.18358,-0.38021 -0.94729,-0.58815 -1.84908,-0.50345 -1.17615,0.11045 -1.64121,-0.11248 -1.98359,-0.95111 -0.30948,-0.75795 -0.99471,-1.1524 -2.22435,-1.28044 -1.33238,-0.13874 -2.07151,-0.61932 -2.95353,-1.92039 -0.64702,-0.95444 -1.32319,-2.61323 -1.50256,-3.68618 -0.17938,-1.07296 0.008,-3.88549 0.4169,-6.2501 0.56787,-3.28574 0.59111,-4.68695 0.0986,-5.94372 -0.35444,-0.90445 -0.99914,-2.0071 -1.43267,-2.45033 -0.43351,-0.44324 -1.1465,-1.73518 -1.58441,-2.87097 -0.43792,-1.1358 -0.84971,-3.04042 -0.91511,-4.23249 -0.0654,-1.19207 0.32693,-3.66019 0.87191,-5.48472 0.54495,-1.82453 1.50936,-3.99924 2.14312,-4.83267 0.63376,-0.83345 2.20393,-1.9208 3.48925,-2.41637 1.77261,-0.68343 2.95342,-0.77636 4.88959,-0.38479 1.40392,0.28393 3.1236,1.04296 3.82148,1.68674 0.69791,0.64377 1.63642,1.79259 2.08558,2.55293 0.44917,0.76034 0.90673,2.52173 1.01682,3.91419 0.11482,1.45266 -0.22801,4.69463 -0.8044,7.60625 -0.66082,3.33835 -1.38546,5.55716 -2.11802,6.48524 l -1.11351,1.41072 1.92395,6.14877 c 1.13332,3.62199 1.83439,6.90478 1.70601,7.98847 -0.11984,1.01183 -0.60136,2.75566 -1.06999,3.87517 -0.47359,1.13135 -1.2401,2.06914 -1.72567,2.11123 -0.48047,0.0417 -1.01434,-0.21572 -1.18636,-0.57198 l 4e-5,0 z m 19.45646,-9.59257 c -0.36248,-0.28638 -0.88802,-1.11565 -1.1679,-1.84282 -0.29511,-0.76675 -0.89337,-1.29578 -1.4242,-1.25943 -0.50341,0.0344 -0.99188,-0.25584 -1.08548,-0.64514 -0.0936,-0.38931 -0.11299,-3.56656 -0.0431,-7.06057 0.0892,-4.4607 0.35485,-6.89942 0.89194,-8.18829 0.65048,-1.5609 0.63153,-2.1617 -0.12669,-4.01547 -0.49039,-1.19897 -0.849,-2.58922 -0.79691,-3.08945 0.0521,-0.50023 -0.25391,-2.16079 -0.67997,-3.69012 -0.42608,-1.52934 -0.67789,-3.65961 -0.55959,-4.73393 0.11789,-1.07437 0.74961,-2.86536 1.40294,-3.98008 0.65331,-1.11472 2.05374,-2.61376 3.11203,-3.3312 1.7845,-1.20974 2.16686,-1.25932 5.26674,-0.68289 2.62251,0.48767 3.58931,0.9257 4.48811,2.03341 0.82893,1.02163 1.18333,2.36091 1.28226,4.84555 0.0752,1.88852 -0.0212,4.97367 -0.21414,6.85587 -0.26203,2.55503 -0.75951,4.10482 -1.96368,6.11626 -1.57453,2.63008 -1.65571,2.68246 -3.41708,2.20516 -0.99234,-0.26891 -1.81756,-0.32578 -1.83385,-0.1264 -0.0167,0.19934 0.11811,0.65859 0.29864,1.02044 0.18052,0.36185 1.30023,1.60643 2.48822,2.76576 1.86119,1.81627 2.24732,2.61667 2.79143,5.7862 0.34731,2.0231 0.52711,4.86473 0.39957,6.31475 -0.12756,1.45002 -0.47462,3.26962 -0.77131,4.04354 -0.29667,0.77393 -0.75486,1.38471 -1.01818,1.35729 -0.26333,-0.0274 -0.7971,-0.44218 -1.18616,-0.92169 -0.38906,-0.4795 -0.86461,-0.88819 -1.05676,-0.9082 -0.19215,-0.02 -1.00099,0.37467 -1.79742,0.87705 -0.79642,0.5024 -1.71182,0.88232 -2.03423,0.84426 -0.32244,-0.0376 -0.88273,-0.3035 -1.24521,-0.58989 l -2e-5,3e-5 z"
       style="fill:#ffffff;fill-opacity:1;stroke:#006500;stroke-width:2;stroke-miterlimit:4;stroke-opacity:1;stroke-dasharray:none"
       sodipodi:nodetypes="cssscccssssssssssssssssssssssssssssssscccssssssscccssssscccsssssssssssssssssssssccssssssssssssssssssssssssscccsssssssssssssssscccsssssssccccccssssssssssssscccsssssssssssssssssssssssssssssssscccccssccsssscccssssssssssssssscccssssscccsssscccssssssssssssssssscccsssssssssssssssssscccssscccsssssssssssssssssssssssssssscc" />
  </g>
</svg>
